<svg xmlns="http://www.w3.org/2000/svg" xmlns:xlink="http://www.w3.org/1999/xlink" viewBox="0 0 600 800"><defs><style>.cls-1{mask:url(#mask);filter:url(#luminosity-noclip-5);}.cls-2,.cls-4,.cls-6,.cls-8{mix-blend-mode:multiply;}.cls-2{fill:url(#linear-gradient);}.cls-3{mask:url(#mask-2);filter:url(#luminosity-noclip-6);}.cls-4{fill:url(#linear-gradient-2);}.cls-5,.cls-7{mask:url(#mask-3);}.cls-5{filter:url(#luminosity-noclip-7);}.cls-6{fill:url(#linear-gradient-3);}.cls-7{filter:url(#luminosity-noclip-8);}.cls-8{fill:url(#linear-gradient-4);}.cls-9{isolation:isolate;}.cls-10{fill:#e0e0e0;}.cls-11{fill:#d9d9d9;}.cls-12{fill:#b8b8b8;}.cls-13{opacity:0.43;}.cls-14{fill:url(#linear-gradient-5);}.cls-15{opacity:0.22;}.cls-16{fill:url(#linear-gradient-6);}.cls-17{fill:url(#linear-gradient-7);}.cls-18{fill:url(#linear-gradient-8);}.cls-19{fill:url(#linear-gradient-9);}.cls-20{fill:#007fe6;}.cls-21{fill:#0064b5;}.cls-22{fill:#004e8c;}.cls-23{fill:url(#linear-gradient-10);}.cls-24{fill:#6a75ba;}.cls-25{fill:#545d94;}.cls-26{fill:#eea886;}.cls-27{fill:#d9d3c8;}.cls-28{fill:#222538;}.cls-29{fill:#eb4747;}.cls-30{fill:#a77860;}.cls-31{fill:#9b3232;}.cls-32{fill:#fff;}.cls-33{mask:url(#mask-5);}.cls-34{fill:url(#linear-gradient-11);}.cls-35{mask:url(#mask-6);}.cls-36{fill:url(#linear-gradient-12);}.cls-37{mask:url(#mask-7);}.cls-38{fill:url(#linear-gradient-13);}.cls-39{mask:url(#mask-8);}.cls-40{fill:url(#linear-gradient-14);}.cls-41,.cls-42,.cls-58{mix-blend-mode:hard-light;}.cls-41{fill:url(#linear-gradient-15);}.cls-42{fill:url(#linear-gradient-16);}.cls-43{fill:#616587;}.cls-44{fill:#152b3d;}.cls-45{fill:#254380;}.cls-46{fill:#353a3d;}.cls-47{fill:#e55353;}.cls-48{fill:#eea987;}.cls-49{fill:#2f4563;}.cls-50{fill:#202338;}.cls-51{fill:#2f6b8c;}.cls-52{fill:#877d78;}.cls-53{fill:#f5e1d9;}.cls-54{fill:#4b6f9e;}.cls-55{fill:#eddad3;}.cls-56{fill:#c9bab3;}.cls-57{fill:#1e2c40;}.cls-59{fill:url(#linear-gradient-17);}.cls-60{fill:url(#linear-gradient-18);}.cls-61{fill:url(#linear-gradient-19);}.cls-62{fill:url(#linear-gradient-20);}.cls-63{fill:url(#linear-gradient-21);}.cls-64{fill:#007bde;}.cls-65{fill:#1a598c;}.cls-66{fill:#2273b5;}.cls-67{fill:#3788cc;}.cls-68{fill:#81807e;}.cls-69{fill:#292c47;}.cls-70{fill:#cac7d1;}.cls-71{fill:#1d2033;}.cls-72{fill:#323657;}.cls-73{fill:#c78d71;}.cls-74{fill:#a09ea6;}.cls-75{fill:#eae6f2;}.cls-76{fill:#3a4066;}.cls-77{fill:#f2dfd8;}.cls-78{fill:#d6c5be;}.cls-79{fill:url(#linear-gradient-22);}.cls-80{fill:url(#linear-gradient-23);}.cls-81{fill:url(#linear-gradient-24);}.cls-82{fill:#ffa855;}.cls-83{fill:#ffa555;}.cls-84{fill:#858585;}.cls-85{fill:#e2d2ca;}.cls-86{fill:#1c1e30;}.cls-87{fill:#24263d;}.cls-88{fill:#282b45;}.cls-89{fill:#1f2136;}.cls-90{fill:#4f558a;}.cls-91{fill:#d6c5bf;}.cls-92{fill:#16202e;}.cls-93{fill:#6e6760;}.cls-94{fill:#918880;}.cls-95{fill:#706865;}.cls-96{fill:#d69779;}.cls-97{fill:#12131f;}.cls-98{fill:#9e633a;}.cls-99{fill:#97a43c;}.cls-100{fill:#82522f;}.cls-101{fill:#c67b47;}.cls-102{filter:url(#luminosity-noclip-3);}.cls-103{filter:url(#luminosity-noclip-2);}.cls-104{filter:url(#luminosity-noclip);}</style><filter id="luminosity-noclip" x="47.47" y="-8592" width="20.86" height="32766" filterUnits="userSpaceOnUse" color-interpolation-filters="sRGB"><feFlood flood-color="#fff" result="bg"/><feBlend in="SourceGraphic" in2="bg"/></filter><mask id="mask" x="47.47" y="-8592" width="20.86" height="32766" maskUnits="userSpaceOnUse"><g class="cls-104"/></mask><linearGradient id="linear-gradient" x1="56.88" y1="282.8" x2="58.64" y2="367.73" gradientUnits="userSpaceOnUse"><stop offset="0" stop-color="#fff"/><stop offset="1"/></linearGradient><filter id="luminosity-noclip-2" x="40" y="-8592" width="8.7" height="32766" filterUnits="userSpaceOnUse" color-interpolation-filters="sRGB"><feFlood flood-color="#fff" result="bg"/><feBlend in="SourceGraphic" in2="bg"/></filter><mask id="mask-2" x="40" y="-8592" width="8.7" height="32766" maskUnits="userSpaceOnUse"><g class="cls-103"/></mask><linearGradient id="linear-gradient-2" x1="43.33" y1="283.08" x2="45.08" y2="368.01" xlink:href="#linear-gradient"/><filter id="luminosity-noclip-3" x="484.23" y="-8592" width="17.71" height="32766" filterUnits="userSpaceOnUse" color-interpolation-filters="sRGB"><feFlood flood-color="#fff" result="bg"/><feBlend in="SourceGraphic" in2="bg"/></filter><mask id="mask-3" x="484.23" y="-8592" width="17.71" height="32766" maskUnits="userSpaceOnUse"><g class="cls-102"/></mask><linearGradient id="linear-gradient-3" x1="502.84" y1="165.22" x2="482.46" y2="241.44" gradientTransform="translate(986.17 403.39) rotate(-180)" xlink:href="#linear-gradient"/><linearGradient id="linear-gradient-4" x1="499.85" y1="170.43" x2="484.07" y2="229.47" gradientTransform="translate(986.17 391.47) rotate(-180)" xlink:href="#linear-gradient"/><linearGradient id="linear-gradient-5" x1="199.42" y1="447.61" x2="528.54" y2="447.61" gradientUnits="userSpaceOnUse"><stop offset="0" stop-color="#ffc05c"/><stop offset="1" stop-color="#ff3857"/></linearGradient><linearGradient id="linear-gradient-6" x1="199.42" y1="438.7" x2="528.71" y2="438.7" gradientUnits="userSpaceOnUse"><stop offset="0" stop-color="#40d5e6"/><stop offset="1" stop-color="#57f"/></linearGradient><linearGradient id="linear-gradient-7" x1="359.07" y1="334.36" x2="476.45" y2="334.36" gradientUnits="userSpaceOnUse"><stop offset="0" stop-color="#8fd6ff"/><stop offset="1" stop-color="#bfebfe"/></linearGradient><linearGradient id="linear-gradient-8" x1="357.12" y1="319.29" x2="474.12" y2="319.29" xlink:href="#linear-gradient-7"/><linearGradient id="linear-gradient-9" x1="378.87" y1="282.14" x2="312.72" y2="470.62" gradientUnits="userSpaceOnUse"><stop offset="0" stop-color="#c6cbcf"/><stop offset="1" stop-color="#f8f1fe"/></linearGradient><linearGradient id="linear-gradient-10" x1="430.49" y1="499.68" x2="530.25" y2="643.93" gradientUnits="userSpaceOnUse"><stop offset="0" stop-color="#57c1ff"/><stop offset="1" stop-color="#bfebfe"/></linearGradient><filter id="luminosity-noclip-5" x="47.47" y="327.34" width="20.86" height="10.14" filterUnits="userSpaceOnUse" color-interpolation-filters="sRGB"><feFlood flood-color="#fff" result="bg"/><feBlend in="SourceGraphic" in2="bg"/></filter><mask id="mask-5" x="47.47" y="327.34" width="20.86" height="10.14" maskUnits="userSpaceOnUse"><g class="cls-1"><polygon class="cls-2" points="52.36 337.49 68.34 337.49 63.45 327.35 47.48 327.35 52.36 337.49"/></g></mask><linearGradient id="linear-gradient-11" x1="56.88" y1="282.8" x2="58.64" y2="367.73" xlink:href="#linear-gradient-6"/><filter id="luminosity-noclip-6" x="40" y="327.34" width="8.7" height="10.14" filterUnits="userSpaceOnUse" color-interpolation-filters="sRGB"><feFlood flood-color="#fff" result="bg"/><feBlend in="SourceGraphic" in2="bg"/></filter><mask id="mask-6" x="40" y="327.34" width="8.7" height="10.14" maskUnits="userSpaceOnUse"><g class="cls-3"><polygon class="cls-4" points="44.89 337.49 48.7 337.49 43.81 327.35 40 327.35 44.89 337.49"/></g></mask><linearGradient id="linear-gradient-12" x1="43.33" y1="283.08" x2="45.08" y2="368.01" xlink:href="#linear-gradient-6"/><filter id="luminosity-noclip-7" x="484.23" y="198.28" width="17.71" height="6.83" filterUnits="userSpaceOnUse" color-interpolation-filters="sRGB"><feFlood flood-color="#fff" result="bg"/><feBlend in="SourceGraphic" in2="bg"/></filter><mask id="mask-7" x="484.23" y="198.28" width="17.71" height="6.83" maskUnits="userSpaceOnUse"><g class="cls-5"><rect class="cls-6" x="484.23" y="198.28" width="17.71" height="6.83" transform="translate(986.17 403.39) rotate(180)"/></g></mask><linearGradient id="linear-gradient-13" x1="502.84" y1="165.22" x2="482.46" y2="241.44" gradientTransform="translate(986.17 403.39) rotate(-180)" xlink:href="#linear-gradient-6"/><filter id="luminosity-noclip-8" x="484.23" y="195.09" width="17.71" height="1.29" filterUnits="userSpaceOnUse" color-interpolation-filters="sRGB"><feFlood flood-color="#fff" result="bg"/><feBlend in="SourceGraphic" in2="bg"/></filter><mask id="mask-8" x="484.23" y="195.09" width="17.71" height="1.29" maskUnits="userSpaceOnUse"><g class="cls-7"><rect class="cls-8" x="484.23" y="195.09" width="17.71" height="1.29" transform="translate(986.17 391.47) rotate(180)"/></g></mask><linearGradient id="linear-gradient-14" x1="499.85" y1="170.43" x2="484.07" y2="229.47" gradientTransform="translate(986.17 391.47) rotate(-180)" xlink:href="#linear-gradient-6"/><linearGradient id="linear-gradient-15" x1="151.84" y1="317.4" x2="151.84" y2="428.71" gradientUnits="userSpaceOnUse"><stop offset="0" stop-color="#626e7a"/><stop offset="1" stop-color="#f5f5f5"/></linearGradient><linearGradient id="linear-gradient-16" x1="504.6" y1="198.81" x2="504.6" y2="310.12" xlink:href="#linear-gradient-15"/><linearGradient id="linear-gradient-17" x1="151.51" y1="357.76" x2="151.51" y2="596.06" gradientUnits="userSpaceOnUse"><stop offset="0" stop-color="#44607d"/><stop offset="1" stop-color="#f5f5f5"/></linearGradient><linearGradient id="linear-gradient-18" x1="177.51" y1="337.77" x2="181.38" y2="337.77" gradientUnits="userSpaceOnUse"><stop offset="0" stop-color="#d5e4ff"/><stop offset="1" stop-color="#edfffe"/></linearGradient><linearGradient id="linear-gradient-19" x1="184.3" y1="334.9" x2="188.17" y2="334.9" xlink:href="#linear-gradient-18"/><linearGradient id="linear-gradient-20" x1="191.43" y1="336.41" x2="195.3" y2="336.41" xlink:href="#linear-gradient-18"/><linearGradient id="linear-gradient-21" x1="198.76" y1="339.89" x2="202.63" y2="339.89" xlink:href="#linear-gradient-18"/><linearGradient id="linear-gradient-22" x1="160.48" y1="539.41" x2="160.48" y2="520.66" gradientUnits="userSpaceOnUse"><stop offset="0" stop-color="#ff9f55"/><stop offset="1" stop-color="#ffd255"/></linearGradient><linearGradient id="linear-gradient-23" x1="-11590.56" y1="548.45" x2="-11580.58" y2="548.45" gradientTransform="matrix(-1, 0, 0, 1, -11427.08, 0)" xlink:href="#linear-gradient-22"/><linearGradient id="linear-gradient-24" x1="-11579.97" y1="506.35" x2="-11570.45" y2="506.35" gradientTransform="matrix(-1, 0, 0, 1, -11427.08, 0)" xlink:href="#linear-gradient-22"/></defs><g class="cls-9"><g id="Слой_1" data-name="Слой 1"><rect class="cls-10" x="281.12" y="389.2" width="1.16" height="121.41"/><rect class="cls-10" x="363.4" y="389.2" width="1.16" height="121.41"/><rect class="cls-10" x="445.68" y="389.2" width="1.16" height="121.41"/><rect class="cls-11" x="199.42" y="374.24" width="19.71" height="3.16"/><rect class="cls-11" x="199.42" y="380.09" width="27.95" height="3.16"/><rect class="cls-11" x="280.82" y="374.24" width="23.14" height="3.16"/><rect class="cls-11" x="280.82" y="380.09" width="14.79" height="3.16"/><rect class="cls-11" x="364.56" y="374.24" width="14.34" height="3.16"/><rect class="cls-11" x="364.56" y="380.09" width="16.71" height="3.16"/><rect class="cls-11" x="446.84" y="374.24" width="20.88" height="3.16"/><rect class="cls-11" x="446.84" y="380.09" width="16.71" height="3.16"/><rect class="cls-12" x="281.7" y="517.8" width="13.09" height="4.22"/><rect class="cls-12" x="364.56" y="517.8" width="13.09" height="4.22"/><rect class="cls-12" x="446.84" y="517.8" width="13.09" height="4.22"/><g class="cls-13"><path class="cls-14" d="M500,474.54c-25.67,0-48-11.1-71.23-22.66-28.71-14.28-58.4-29-98-25-25.26,2.58-41.12,12.87-55.1,21.94-12.67,8.22-24.64,15.45-40.86,16.06-26.21,1-35.3-10.18-35.46-10.86v-7.17h0c0,.12,5.76,12.67,35.43,12.52,14.61-.07,25.4-7.07,37.88-15.17,14.52-9.42,31-20.09,57.55-22.81,41.14-4.2,71.56,10.92,101,25.55,30.78,15.3,60.15,29.66,97.29,17.21V470A83.81,83.81,0,0,1,500,474.54Z"/></g><g class="cls-15"><path class="cls-16" d="M346,473.16c-18.94,0-34-12.74-48.67-25.21-11.16-9.45-22.73-19.12-36.08-23.89-40.77-14.55-61.62,12-61.81,12.26v-8.09c.22-.28,3.94-5.11,14.71-9.72,9.79-4.2,26.23-7.55,48.91.34,14.36,5,26.3,15.11,37.83,24.9,23.41,19.84,43.62,37,78.73,10.13,26.59-20.33,51.65-39.7,76.31-46.78,24.12-6.92,49.27-1.86,72.8,21.68l-.17,7.34c-50-50.22-92.57-18.4-145.59,22.14C368.9,469,356.8,473.16,346,473.16Z"/></g><polygon class="cls-17" points="359.91 360.2 359.07 359.22 372.93 347.41 381.35 347.41 400.45 331.14 412.39 341.32 421.2 341.32 425.65 345.11 439.49 333.32 446.51 333.32 475.62 308.53 476.45 309.51 446.98 334.61 439.96 334.61 425.65 346.8 420.73 342.6 411.92 342.6 400.45 332.83 381.82 348.7 373.41 348.7 359.91 360.2"/><polygon class="cls-18" points="361.91 343.89 357.12 343.89 357.12 342.6 361.38 342.6 368.57 335.41 373.8 340.64 386.29 328.14 390.13 331.99 402.8 319.32 410.39 326.91 419.05 326.91 432.4 313.55 443.92 313.55 452.44 305.04 462.87 305.04 473.21 294.69 474.12 295.6 463.4 306.32 452.97 306.32 444.46 314.84 432.94 314.84 419.58 328.2 409.86 328.2 402.8 321.14 390.13 333.81 386.29 329.97 373.8 342.46 368.57 337.23 361.91 343.89"/><path class="cls-19" d="M489.83,346.82l0-.09a154.54,154.54,0,0,0-85.55-98.58h0a154.81,154.81,0,0,0-81.87-12.28h-.07a153.86,153.86,0,0,0-37.47,9.58l-.07,0A154.41,154.41,0,1,0,421.1,521.36l6.49,9,30.56-22-7.38-10.25a154.55,154.55,0,0,0,39.06-151.29ZM376.77,487.9A105,105,0,0,1,302.9,291.33c1-.39,2-.77,3-1.14a105,105,0,0,1,134.28,63.43c.79,2.21,1.51,4.42,2.14,6.64A105,105,0,0,1,376.77,487.9Z"/><path class="cls-20" d="M520.25,338.06l-30.44,8.67-47.48,13.53c-.63-2.22-1.35-4.43-2.14-6.64a104.68,104.68,0,0,0-56-60.46l20.1-45h0l2.12-4.73,10.8-24.2A186.13,186.13,0,0,1,520.25,338.06Z"/><path class="cls-21" d="M406.38,243.42l-2.12,4.73-20.1,45a104.84,104.84,0,0,0-55.71-8.35l-6.06-48.94-.63-5.13a159,159,0,0,1,61,4.3A156.71,156.71,0,0,1,406.38,243.42Z"/><path class="cls-22" d="M328.45,284.81a105.38,105.38,0,0,0-22.54,5.38c-1,.37-2,.75-3,1.14l-18-45.88-5.47-13.89A168.37,168.37,0,0,1,320.53,221h0l1.2,9.7.63,5.13Z"/><polygon class="cls-23" points="525.58 591.96 464.71 591.96 422.41 533.22 462.5 504.36 525.58 591.96"/><path class="cls-24" d="M308.4,210.4a46.22,46.22,0,0,0-3.44-5.48c-1.25-1.45-5.39-2.53-4.83-4.38s6.12-1,7.65.76,6.19,2.45,6.36,3.22-1.63,4.95-2.63,5.63S308.4,210.4,308.4,210.4Z"/><path class="cls-25" d="M299.08,213.81a44.12,44.12,0,0,0-5.29-3.67c-1.73-.84-6-.19-6.18-2.11s5.2-3.39,7.32-2.33,6.67-.21,7.12.43.47,5.18-.17,6.21S299.08,213.81,299.08,213.81Z"/><path class="cls-26" d="M307,221.18s1.56-10.66,1.49-12.52c0-.52,3.21-.33,3.06.69-.33,2.21,1.16,10.78.9,12.35S306.88,222.17,307,221.18Z"/><path class="cls-26" d="M302.13,224.25s-2.93-10.36-3.61-12.08c-.3-.77,2.68-2,3.08-.59.63,2.15,5.35,9.44,5.74,11S302.4,225.21,302.13,224.25Z"/><path class="cls-27" d="M304.15,231.44s-3.13-10.58-3.62-11.71l5-3.06s2.3,6.76,2.62,8.45S304.15,231.44,304.15,231.44Z"/><path class="cls-28" d="M391.78,203.48s-4.78,1.21-7.06,4.82-4.24,7.78-8.51,9.67a7,7,0,0,0-4,7.51c.33.75,13.46,15.5,16.33,16.07s8.22.18,7.65-3.61-6.19-11.95-3-16.07a21.67,21.67,0,0,0,3.95-7.9Z"/><path class="cls-26" d="M390.94,221.13a1.62,1.62,0,0,0-.37-.07,2.66,2.66,0,0,0-1.12.13,3.54,3.54,0,0,0-.44.22c-1.13.67-3.82,2.49-4.18,2.53s-.07-6.22-.07-6.22a14.64,14.64,0,0,0,1.61-4.2C386.55,211.86,390.94,221.13,390.94,221.13Z"/><path class="cls-27" d="M357.32,227.68s-5.25-3.68-11.41-2.54-6.82,4-8.94,4.16-9.17-.47-15,1.22-10.68,1.87-11.35,1.39,3.63-10.15,3.63-11.47l-7.19-1.88s-2,8.58-2.85,10.51-2.52,6-.17,9.34,8.94,1.85,12.92,2.53,21.82.25,24.93.08c3.39-.18,13.59-.66,13.59-.66Z"/><path class="cls-26" d="M400.45,208.59s.34,5.19-.81,6.75a7.18,7.18,0,0,1-1,1.14,2.31,2.31,0,0,0-.65,1,19.25,19.25,0,0,1-.86,2.71c-.31.32-1.21-.51-1.53-.51s-3.49,2.72-4.24,2.17-5.37-5.24-5-8.45,1.8-8,7-8S400.06,207.3,400.45,208.59Z"/><path class="cls-29" d="M384.77,233.35a22.8,22.8,0,0,1-4.1,5,4.36,4.36,0,0,1-2.59,1.25h-.72c-2.4.07-4.25.43-7.49.6s-11.53-.31-11.77-.31-2.59.43-2.59.43c-.85-1,1.39-12.62,1.81-12.68s3.14,1,5.73.54,3.62-.66,7.49-5.19,7.73-5.67,9.36-5.31a20.65,20.65,0,0,0,4.87,0S384.91,233.05,384.77,233.35Z"/><path class="cls-28" d="M398.27,212.31s1,2.51,1.48,2.85c0,0,1.87-2,.67-6.85s-5.72-5.33-8.64-4.83c-3.64.61-7.3,12.91-7.11,14.11s4.26-6.36,7.83-5.75S396.1,212.65,398.27,212.31Z"/><path class="cls-30" d="M390.57,221.06a2.69,2.69,0,0,0-1.11.15,2.62,2.62,0,0,0-.45.2,21.2,21.2,0,0,1-1.63-4.49A31.17,31.17,0,0,0,390.57,221.06Z"/><path class="cls-31" d="M380.67,238.38a4.36,4.36,0,0,1-2.59,1.25h-.72l1.18-9.61Z"/><path class="cls-26" d="M399.45,254.93,397.13,257a80.79,80.79,0,0,1-8-5.5c-1-.86-7.75-6.5-8.68-7.78s-2.11-14.57-2-15.18,5.86-.9,6.51.5c0,0,.3,7.57.45,8.84a6.57,6.57,0,0,0,1.5,3.48c1.21,1.48,3.77,4.91,6.25,7.68C393.79,249.74,398.68,254.27,399.45,254.93Z"/><path class="cls-29" d="M385.47,229.25s.36-10.09-2.92-10c-4.15.16-4.77,5.23-4.2,10.74C378.35,230,384.54,230.09,385.47,229.25Z"/><path class="cls-26" d="M398.33,253.94a1.71,1.71,0,0,0,.76.64c.77.26,1.91-.24,2.48.77s-2.16,3.54-2.89,3.69-1.9-1-2.82-3.23S398.33,253.94,398.33,253.94Z"/><path class="cls-26" d="M401.33,255s1.38,1.06,2.79,2.42c1.23,1.18,2.48,2.75,2.16,3s-1.27-.94-2.57-2-1.12-.62-1.12-.62,0-.11,1.07,1.23,2.39,3.17,2,3.42-.23.2-.74-.26c.23.32.18.43.05.54-.65.54-2.71-1.33-3.52-2.08.62.58,1,1.07.38,1.14s-3.5-2.69-4.6-3.59S401.33,255,401.33,255Z"/><path class="cls-10" d="M359.68,228.14s-1.11,7.94-.56,11.84a2,2,0,0,0,1.72.09s.29-8.67.93-11.74C361.77,228.33,361.42,228.06,359.68,228.14Z"/><rect class="cls-10" x="359.94" y="173.79" width="0.86" height="60.35"/><rect class="cls-32" x="493.93" y="486.4" width="16.62" height="1.16" transform="translate(1004.47 973.96) rotate(180)"/><rect class="cls-32" x="493.93" y="488.59" width="16.62" height="4.9" transform="translate(1004.47 982.08) rotate(180)"/><rect class="cls-32" x="486.12" y="495.13" width="9.8" height="0.73" transform="translate(982.05 991) rotate(180)"/><rect class="cls-32" x="486.12" y="496.19" width="9.8" height="1.98" transform="translate(982.05 994.35) rotate(180)"/><rect class="cls-32" x="513.27" y="480.12" width="0.73" height="13.72" transform="translate(1027.28 973.96) rotate(180)"/><g class="cls-33"><polygon class="cls-34" points="52.36 337.49 68.34 337.49 63.45 327.35 47.48 327.35 52.36 337.49"/></g><g class="cls-35"><polygon class="cls-36" points="44.89 337.49 48.7 337.49 43.81 327.35 40 327.35 44.89 337.49"/></g><g class="cls-37"><rect class="cls-38" x="484.23" y="198.28" width="17.71" height="6.83" transform="translate(986.17 403.39) rotate(180)"/></g><g class="cls-39"><rect class="cls-40" x="484.23" y="195.09" width="17.71" height="1.29" transform="translate(986.17 391.47) rotate(180)"/></g><rect class="cls-41" x="89.25" y="292.4" width="125.18" height="10.97" rx="5.49"/><rect class="cls-42" x="442.01" y="173.81" width="125.18" height="10.97" rx="5.49"/><polygon class="cls-43" points="290.84 573.96 354.41 573.96 334.37 635.48 336.25 636.09 357.12 571.99 289.41 571.99 268.74 635.48 270.61 636.09 290.84 573.96"/><polygon class="cls-43" points="312.48 635.48 292.44 573.96 356 573.96 376.24 636.09 378.11 635.48 357.44 571.99 289.73 571.99 310.6 636.09 312.48 635.48"/><rect class="cls-43" x="284.93" y="591.36" width="77.8" height="1.97"/><rect class="cls-43" x="276.91" y="612.75" width="93.08" height="1.97"/><path class="cls-26" d="M322.69,433.54s1.59-2.77-.93-10.2a7.48,7.48,0,0,0-13.51-1.93c-2.68,4.6-1.77,7.46,2.16,12.66S321.06,435.92,322.69,433.54Z"/><path class="cls-26" d="M303.15,561.41s-.41,3.05-.47,3.51-4.63-.27-4.63-.27l-.37-3.64S302.58,561,303.15,561.41Z"/><path class="cls-44" d="M302.73,564.53a12.52,12.52,0,0,0,2.86,2.64c1.4.8,3.6,1.12,4.43,2,.6.6,2.19,3.17-3.64,3.12s-8.64.37-9.26-.62.9-7.3.9-7.3A16.2,16.2,0,0,0,302.73,564.53Z"/><path class="cls-26" d="M334.86,561.41s-.42,3.05-.47,3.51-4.63-.27-4.63-.27l-.37-3.64S334.29,561,334.86,561.41Z"/><path class="cls-44" d="M334.44,564.53a12.61,12.61,0,0,0,2.85,2.64c1.41.8,6.57,1.46,7.4,2.29.6.6,1.59,3-6.61,2.78-5.82-.16-8.63.37-9.26-.62s.9-7.3.9-7.3A24.66,24.66,0,0,0,334.44,564.53Z"/><path class="cls-29" d="M304.69,485.41s-2.34,7.29-2,13.58-1.21,13.17-1.83,19.74c-.7,7.32-3.54,24.66-3.64,28.57s.44,16.43.44,16.43l5.69.13s4.77-30.3,6-33.39,7.37-25.14,7.58-27.62S304.69,485.41,304.69,485.41Z"/><path class="cls-29" d="M328.27,484.65s3.45,19.29,3.87,23.14.68,18.62.89,21,1.37,31.47,2.47,35h-6.34s-6.51-21.13-6.51-31.13-4.31-21.73-7.09-28.33-9.16-6.75-10.87-19C304.69,485.41,326,480.77,328.27,484.65Z"/><path class="cls-26" d="M320.39,435.5a5.57,5.57,0,0,0,0,3.57c.72,1.49-9.14.6-9.14.6a10.58,10.58,0,0,0-.84-5.6C309.13,431.55,320.39,435.5,320.39,435.5Z"/><path class="cls-29" d="M304.24,487s3.54,3.64,24.35-.57l-.32-1.78-23.65.89Z"/><path class="cls-26" d="M321.88,439.55s3.64.38,4.68.57,8-1.25,9.48-1.4,7.56-4.34,7.76-4.84,3.72-9.42,3.92-11.35,3.43-.94,3.16.39c-.52,2.49-1.19,8.54-1.56,10.29s-1.45,6.17-2,6.7a42.68,42.68,0,0,1-11.51,6.5,45.88,45.88,0,0,0-9.46,4.41h-26.6s-10.34-14.79-10.56-17,7.22-17,8.71-18.89,3.63.6,3.63.6-4.45,13.06-5,14.92,5.17,10,6.76,10,5.65-.49,7.46-.57a12.39,12.39,0,0,0,3.71-.87Z"/><path class="cls-45" d="M333.35,449.43a8.61,8.61,0,0,0-3.56,5.88,75.65,75.65,0,0,1-2.08,11.59c-.59,2,.52,16.56.67,17.6s-20.58,3.51-23.76,1c0,0-.9-13.59-1.27-17.45s-2.15-13.22-2.74-14.49-7.8-11.37-8.1-12.7c0,0,3.73-5.94,6.4-6,0,0,4.25,5,5.63,5.2s9.87-1.34,9.87-1.35.93,1.26,5.86-.22c0,0,5.86.66,6.81.78,1.16.15,9.19-1,9.19-1s3.22,5.44,2.66,8.19Z"/><path class="cls-26" d="M347.53,423.69s.73-3.44-.15-4.43c-.49-.56-1.69-2.05-1.8-2.27s-1.4-1-1.4-1.32,1.26-.79,2.36.22,1.77,1.23,2.21,1.12,1.07-3.74,1.12-4.65.41-3.28,1-3.12.54,1.21.54,1.21.65-1.81,1.09-1.45.39,1.23.39,1.23.82-1,1-.27a2.64,2.64,0,0,1,0,1.39s.84-.46.9.69a17.63,17.63,0,0,1-.85,5.71c-.6,1.21-2.86,4.36-3.12,5.59S347.53,423.69,347.53,423.69Z"/><path class="cls-26" d="M300.77,417.64s2.47-4.16,3.31-4.53a14.24,14.24,0,0,0,3.07-1.32c1-.74,2.42-1.36,2.34-1.61s-1.3-.15-2.61.42-1.89.29-2,0a7.77,7.77,0,0,1,1.09-2.89c.4-.5,3.22-3.34,2.75-3.76s-2.3,1.14-2.6,1.46c0,0,1.46-3.07.89-3.22s-1.63.94-1.63.94.12-2.62-2.7,1.64c0,0,.6-1.41-.27-.94s-1.71,3.12-2,4.45-1.51,5.6-2.56,6.63S300.77,417.64,300.77,417.64Z"/><path class="cls-46" d="M310.41,434.07a11.13,11.13,0,0,0,4.08-.84c2.77-1,3-5.81,3.58-5.23a1.75,1.75,0,0,0,2.84-.33s-1.35-1.79-.73-2.64a6.73,6.73,0,0,1,1.65-1.49s-1.95-9.4-10.82-5.12C300.61,423.44,310.41,434.07,310.41,434.07Z"/><path class="cls-45" d="M320.39,439.07l-.31-1.36a72.31,72.31,0,0,0-8.76.34l-.32,1.62S315,441.47,320.39,439.07Z"/><path class="cls-26" d="M319,426.81c-.52-.86-2.42-1.43-2.65,1-.17,1.88,3.4,3.93,3.44,2.18A5.33,5.33,0,0,0,319,426.81Z"/><path class="cls-47" d="M347.67,422.91a5.66,5.66,0,0,1,3,.94,2,2,0,0,1-.16,1,12.56,12.56,0,0,0-3.13-1S347.43,423.15,347.67,422.91Z"/><path class="cls-46" d="M350.08,423.42a.88.88,0,1,1-1.16-.47A.88.88,0,0,1,350.08,423.42Z"/><path class="cls-48" d="M511.54,481.09s-1.81.24-1.8-.53.14-1.77.14-1.77Z"/><path class="cls-48" d="M521.74,472.76l-6,4.61c.76-.14,2-.33,2.06.07,0,.57-2.26,1.25-3,1.77s-1.37,1.31-1.56,1.35l-1.3,1.12-2.11-2.89s3.48-3.93,4.31-4.77c1.37-1.36,6.87-2.17,7.18-2C521.91,472.41,521.74,472.76,521.74,472.76Z"/><path class="cls-49" d="M514.39,481.87l-4.81-4.07-16.47,16.65c-2.58,1.77,5,7.88,7.18,9.21,5.52,3.43,12,11.35,18.79,6.52,7.33-5.24-3.34-9-6.89-8.88-3.08.08-9.8-6-9.8-6Z"/><path class="cls-50" d="M505.69,631.25s-2.73,2.87-5.51,3.47-4.72,1.37-4.75,3,8,2.74,11.18,1.07c4.75-2.48,5.23-1.73,5.75-3s-.63-4.56-.59-5S505.69,631.25,505.69,631.25Z"/><path class="cls-51" d="M506,629.87a12.05,12.05,0,0,0-.31,1.38c.06,0,6.26.72,6.08-.36-.16-.88-.37-1.83-.37-1.83Z"/><path class="cls-50" d="M536.61,632s-2,2.8-4.71,3.45-4.37,1.85-4.5,3.45,6.26,3.7,10.75.89c3-1.85,4.05-1.75,4.64-2.92s-.31-4.47-.25-4.85S536.61,632,536.61,632Z"/><path class="cls-51" d="M536.69,630.61a12.34,12.34,0,0,0-.08,1.38s6,1.08,5.93,0a8.57,8.57,0,0,0-.37-1.91Z"/><path class="cls-52" d="M512.26,549s-2.87,20.88-4.05,27.94c-1.37,8.25-1.84,15.07-2.22,19.35-.48,5.37-1.12,32.87-1.46,34.44s8.38.75,8.38.75,4.56-35.85,6-41.57c1.34-5.33,5.23-28.34,6.45-26.89s4.95,27.53,5.85,31.73,3.32,37.29,3.32,37.29,8.22,1.31,9.87,0c0,0-1.3-29.5-1.87-37.38-.22-3,1.9-35.95-3.18-49.23C536.66,538.42,512.26,549,512.26,549Z"/><path class="cls-29" d="M520.7,498.93s-7.61,1.57-8.51,2.37-2.71,9.19-2.81,11.51a88.78,88.78,0,0,0,1.89,15.62c1,3.61,1,19.23.38,24.23a102.2,102.2,0,0,0,29.71,1s-2.06-15.19-1.45-20.14c.77-6.33,2.63-20.94,2.63-20.94s0-8.22-1.16-9.53c-2.49-2.82-12.1-4.16-12.1-4.16Z"/><path class="cls-49" d="M532.12,514.17c.35,7.53,2.75,9.35,5.11,8.77a5.1,5.1,0,0,0,2.1-1.16,6.56,6.56,0,0,0,2.07-3.22c1-4.19,1-15.75-4.24-17.24C537.16,501.32,531.42,499.47,532.12,514.17Z"/><path class="cls-53" d="M509.37,517.59s4.24-.7,4.5,5.45,2.92,17.59,7.27,22.15l-17.08.64c-4.34-4.55-6.48-15.46-6.8-21.62-.3-5.65-4.5-5.45-4.5-5.45Z"/><path class="cls-49" d="M519.33,503.49l.31.19a4.58,4.58,0,0,0,1.5.4,3.76,3.76,0,0,0,.67,0,3,3,0,0,0,.42,0c4-.39,8-5,8-5-8.09-1.23-11.56.28-11.56.28S517.41,502.2,519.33,503.49Z"/><path class="cls-26" d="M521.06,475.63s-9.57-1.92-7.11,10,4.77,12.81,10.45,10.2,5-10.28,5.19-14.05S524.1,475.69,521.06,475.63Z"/><path class="cls-26" d="M519.5,500.58s1.88,1.24,9-1.9a25.15,25.15,0,0,1,.39-8.9c1.06-4.47-8.77,5.53-8.77,5.53s.14.54.07,1.17c0,.18,0,.36-.07.55s-.12.69-.21,1.05c0,.1,0,.19-.07.29A4.62,4.62,0,0,0,519.5,500.58Z"/><path class="cls-46" d="M529.27,487.94s-.48-3.21-1.86-3.3-1.78,1.88-1.78,1.88l-1.08.11s.45-3.4-.94-3.95-8.9,1.31-10,.37-.57-7.22,1.41-8.19,7.25-3.59,11.35-.95c0,0,3.14-.44,3.67,2.09S530.08,486,529.27,487.94Z"/><path class="cls-26" d="M525.68,483.52a1.31,1.31,0,0,1,2.55.37c0,1.71-1.43,4.59-2.25,4.22S525.36,485.06,525.68,483.52Z"/><path class="cls-54" d="M528.52,497.32a22.71,22.71,0,0,1-7.43,2.76l2,3.14,6.22-4.29Z"/><path class="cls-54" d="M519.86,498.37a3.19,3.19,0,0,0,1.23,1.71l-1.84,2.58.07-3.42Z"/><path class="cls-32" d="M521.09,500.08l-1.46,2s.93,1.17,2.92.28Z"/><path class="cls-32" d="M519.64,503.68a4.58,4.58,0,0,0,1.5.4,3.76,3.76,0,0,0,.67,0l-.22-1.9h-1.35A6.57,6.57,0,0,0,519.64,503.68Z"/><path class="cls-30" d="M519.89,498.25c4.23.22,6.94-4.17,7-4.29a10.7,10.7,0,0,1-6.77,3.07C520.09,497.36,520,497.89,519.89,498.25Z"/><path class="cls-55" d="M509.37,517.59s-5.08.47-4,7.57l-15.09.81s-2.08-4.83,2.49-7.21Z"/><rect class="cls-56" x="491.71" y="522.49" width="11.8" height="0.61" transform="translate(1022.58 1018.11) rotate(176.92)"/><rect class="cls-56" x="492.72" y="519.77" width="11.8" height="0.61" transform="translate(1024.45 1012.62) rotate(176.92)"/><rect class="cls-56" x="499.04" y="525.82" width="11.8" height="0.61" transform="translate(-27.53 27.88) rotate(-3.08)"/><rect class="cls-56" x="500.52" y="529.95" width="11.8" height="0.61" transform="translate(-27.76 27.98) rotate(-3.08)"/><rect class="cls-56" x="501.99" y="534.07" width="11.8" height="0.61" transform="matrix(1, -0.05, 0.05, 1, -27.97, 28.05)"/><rect class="cls-56" x="503.47" y="538.2" width="11.8" height="0.61" transform="translate(-28.2 28.15) rotate(-3.08)"/><rect class="cls-56" x="504.95" y="542.32" width="11.8" height="0.61" transform="translate(-28.41 28.22) rotate(-3.08)"/><path class="cls-26" d="M522.45,530.85a2.05,2.05,0,0,1-1.23.15c-1-.26-1.81-1.63-3.1-.93s-.2,5.39.45,6.08,2.65.29,5.14-1.5S522.45,530.85,522.45,530.85Z"/><path class="cls-26" d="M518.59,529.9a41.65,41.65,0,0,0-4.56.64c-2.09.41-4.63,1.22-4.54,1.75.15.81,2.16-.1,4.27-.37,1.94-.25,1.6.13,1.6.13s.09-.12-2,.57c-2.22.74-4.56,1.63-4.49,2.07s.15.59,1,.46c-.47.18-.48.34-.43.54.3,1.07,3.73.49,5.09.26-1,.19-1.79.43-1.19,1s5.5-.42,7.25-.63C522.53,536.06,518.59,529.9,518.59,529.9Z"/><path class="cls-49" d="M535.47,501.47c-1.55.51-2.38,2.71-1.44,7.27a29.68,29.68,0,0,0,2.89,8.68c.67,1.18,4.32,7.26,3.65,8.23s-9.46,3.25-10.06,3.42c-1.2.34-9.18,1.93-9.18,1.93l2,6.84s24.3-4.15,25.49-5.33,1.8-2.79.49-6.92-3.72-14-4.15-14.81S542.47,499.17,535.47,501.47Z"/><path class="cls-57" d="M534.25,509.73s.54,7.72,3,13.21a5.1,5.1,0,0,0,2.1-1.16s-2.81-5.07-3.06-5.65S534.53,511.08,534.25,509.73Z"/><g class="cls-58"><rect class="cls-59" x="89.61" y="310.47" width="123.8" height="88.26" rx="33.85"/></g><rect class="cls-60" x="177.51" y="327.02" width="3.87" height="21.51"/><rect class="cls-61" x="184.3" y="321.28" width="3.87" height="27.25"/><rect class="cls-62" x="191.43" y="324.28" width="3.87" height="24.25"/><rect class="cls-63" x="198.76" y="331.25" width="3.87" height="17.28"/><rect class="cls-64" x="177.51" y="334.88" width="3.87" height="13.65"/><rect class="cls-64" x="184.3" y="331.25" width="3.87" height="17.28"/><rect class="cls-64" x="191.43" y="333.15" width="3.87" height="15.38"/><rect class="cls-64" x="198.76" y="337.77" width="3.87" height="10.76"/><rect class="cls-32" x="178.57" y="355.9" width="23" height="6.13" rx="3.07"/><rect class="cls-32" x="178.57" y="367.38" width="23" height="6.13" rx="3.07"/><rect class="cls-32" x="178.57" y="378.86" width="23" height="6.13" rx="3.07"/><path class="cls-32" d="M167.45,342.22a34.17,34.17,0,1,0-64.35,23c.26.72.54,1.44.84,2.13a34.17,34.17,0,0,0,63.51-25.14ZM143.9,377.85A25.59,25.59,0,0,1,111.78,364c-.22-.52-.44-1.06-.63-1.6a25.62,25.62,0,1,1,32.75,15.5Z"/><path class="cls-65" d="M110.82,346.09l-8.17-2.55a34.24,34.24,0,0,1,31.6-24l.26,8.55a25.65,25.65,0,0,0-23.69,18Z"/><path class="cls-66" d="M111.78,364l-7.84,3.41c-.3-.69-.58-1.41-.84-2.13a34,34,0,0,1-.45-21.69l8.17,2.55a25.47,25.47,0,0,0,.33,16.26C111.34,362.89,111.56,363.43,111.78,364Z"/><path class="cls-67" d="M109.24,375.87a34,34,0,0,1-5.3-8.51l7.84-3.41a25.65,25.65,0,0,0,4,6.38Z"/><path class="cls-50" d="M216.05,620.58a24.25,24.25,0,0,1-2.07,3.26c-.82.93-3.95,2.59-4,5.34,0,3,5.28,2.16,7.36,2.05s2.22-1.71,3.1-3.4,1.75-1.4,1.91-2.77a15.9,15.9,0,0,0-.84-4.48Z"/><path class="cls-68" d="M221.47,619.68a10.7,10.7,0,0,1,.19,1.3s-5.87,1.07-5.84,0a5.17,5.17,0,0,1,.54-1.82Z"/><path class="cls-26" d="M274.83,509.87s6.12-1.29,6.57-1,.49.61-.08.75-5.88,1.42-5.88,1.42,7.41-.27,7.84-.14c.25.08.34.74,0,.85s-7.65.81-7.65.81,6.92-.24,7.24,0a.52.52,0,0,1-.3.89l-6.95.65s5,.16,5.19.52.2.78-1.1.7-4.38.06-4.38.06Z"/><path class="cls-50" d="M247.62,620.14s2.56,2.85,5.15,3.44,4.41,1.36,4.43,3-7.46,2.71-10.43,1.06c-4.43-2.46-4.88-1.71-5.37-2.95s.59-4.52.56-4.91S247.62,620.14,247.62,620.14Z"/><path class="cls-68" d="M247.34,618.77a11.86,11.86,0,0,1,.28,1.37c-.05,0-5.84.71-5.66-.36.14-.87.34-1.81.34-1.81Z"/><path class="cls-69" d="M242.07,538.8s2.11,20.46,3.2,27.46c1.28,8.19,1.72,15,2.08,19.2.45,5.33.53,31.55.85,33.11s-7,.43-7,.43-3.59-34.26-4.93-39.94c-1.24-5.29-5.87-28-7-26.61s-2.54,26.57-3.39,30.74-3.4,36.81-3.4,36.81-5.8,1.16-7.35-.15c0,0-.7-28.13-.16-36,.2-3-3.5-35.72,1.24-48.9C218.73,528,242.07,538.8,242.07,538.8Z"/><path class="cls-70" d="M206,541.7s3.55,1.08,5,.81.74-18.53.79-22.33c.05-3.08,1.74-11.21,1.74-11.21h0c.17.61,2.44,9,2.52,13.11s-.55,20.31-.55,20.31l6.28.61,18,.44,3.76-.44s-.45-6.89-.62-10.16c-.1-2.08-.51-5.8-.4-9.42a33.21,33.21,0,0,1,.31-5.47c0-7.26.48-14.46.48-14.46q.36-4.93.51-9.24c-.79-.42-1.75-.91-2.51-1.28-2.37-1.12-5.66-2.64-7.78-3.61-1.24-.57-2.45-1-2.45-1s-8.45-.81-9.14-.77a21.15,21.15,0,0,0-2.66.91,98.62,98.62,0,0,0-9.69,4.11c-1.35,1-4.21,23.93-4.33,25.54C205,521.09,206,541.7,206,541.7Z"/><path class="cls-71" d="M243,540.15a150.18,150.18,0,0,1-23.2,0v3.56s16.27,2.35,23.75-.68Z"/><path class="cls-72" d="M232.46,488.92s2,4.73,3.53,15.3c.58,4,1.65,10.89,2.43,17.86h0c.62,5.5,2,11.14,2.47,15.34.46,4.36,1.86,17.2,1.86,17.2l3.38-2.13c.49-.45,1.16-1,1-1.66-.93-3-2.71-12.93-3.77-21.59v0l-.15-1.24v-.06c-.2-1.73-.37-3.39-.48-4.91a15.55,15.55,0,0,1,.15-3.42c.47-7.77.7-16,.7-16,.25-3.35.39-6.48.49-9.4a18.13,18.13,0,0,0-2.61-1.47S233.88,489.33,232.46,488.92Z"/><path class="cls-70" d="M231.83,491.39s.23,3.23-2.51,3.31-4.91-2.55-4.91-2.55l4.54,1.17,2.77-2.34Z"/><path class="cls-26" d="M268,512.48s2-.55,2.26-1.75a7.27,7.27,0,0,1,1.52-2.55c.4-.49,1.14-2.44,1.71-1.94s-1.07,3.26-1.31,3.9,2.53-.49,3.17-.29,1.92,5-.05,5.52-4.35-.19-4.68,0a12,12,0,0,1-1.42.46Z"/><path class="cls-48" d="M228.14,466.61s6.27,1.06,5.21,10.88-6.61,9-7,8.95-5.57.12-5.84-11.9C220.53,474.54,220.45,465.66,228.14,466.61Z"/><path class="cls-48" d="M230.89,483.59s0,4.05.16,4.92-5,3.67-8.41.5a34.9,34.9,0,0,0,.47-6C222.9,481.47,230.89,483.59,230.89,483.59Z"/><path class="cls-48" d="M233.37,475.21s.7-.73.94,0-.88,3.91-1,4.21c0,0-.12.29-.29.13A36.68,36.68,0,0,1,233.37,475.21Z"/><path class="cls-48" d="M220.6,474.45s-.67-.75-.94,0,.73,4.05.85,4.25c0,0,.22.34.39.19A36.27,36.27,0,0,0,220.6,474.45Z"/><path class="cls-46" d="M233.88,473.88c-.22,1.35-.42,2.34-.42,2.34l-.92,1.2a23.79,23.79,0,0,0-.08-3.05,5.74,5.74,0,0,1-.18-.74,12,12,0,0,0-.29-1.24c-.12-.3-5.38-1.84-10.06.32a8,8,0,0,1,0,.86c0,.52-.06,1.11-.3,1.2-.45.16-.26,3.09-.26,3.09l-.73-.85s-.21-1.52-.42-3.28h0c-.05-.41-.1-.83-.14-1.25-.11-1.76.07-5,2.37-6.85,1.55-.66,4-1.23,8.15,0a5,5,0,0,1,1.3.54C234.5,469,233.88,473.88,233.88,473.88Z"/><path class="cls-73" d="M223.54,485.13a4,4,0,0,0,3.33,1.33,4.53,4.53,0,0,0,3.34-1.26s-1.1,2.3-3.35,2.28S223.54,485.13,223.54,485.13Z"/><path class="cls-74" d="M231.29,491.59,229,493.32s2-4.17,2-5.84Z"/><polygon class="cls-75" points="230.96 487.48 232.55 488.96 234.23 493.96 231.29 491.59 230.96 487.48"/><path class="cls-72" d="M270.61,517.1s-13.82,3.64-17.2,2.81c-1.56-.38-3.62-2.54-5.57-5.07-.65-.84-1.28-1.71-1.88-2.58h0c-2.4-3.47-4.28-6.79-4.28-6.79s-7.09-8.3-1.4-12a6.4,6.4,0,0,1,3.76.77c1.26.93,4.32,6.77,4.82,7.86s5.88,11.15,6.24,11.38,5-.6,7.42-.81a39,39,0,0,0,7.29-1.34Z"/><path class="cls-48" d="M230.66,489a27.85,27.85,0,0,1-1.71,4.35s-2.46-2.15-3.23-2.92S230.66,489,230.66,489Z"/><path class="cls-74" d="M226.38,490.91l2.57,2.41s-3-.2-3.61-.71Z"/><path class="cls-75" d="M223,486.48a24.49,24.49,0,0,0,3.41,4.43l-2.28,3.79-3.66-6.65Z"/><path class="cls-72" d="M212.05,520.35c-.26,3.53,1.23,23-.26,23.31s-6.95-.93-6.95-.93-.69-21-.47-23.24c.16-1.6,2.72-25.68,4.06-26.64.78-.56,6.56-2.61,9.39-3.73.52-.2,2.16-.89,2.62-1.07.6.67,5.84,13,6.34,22.54.15,2.92-.54,9.07-1.06,14.1-.55,5.37-1.17,9.56-1.62,14-.88,8.84-1.5,15.88-1.5,15.88l-8.8-3.92c-1.43-.71-3.4-3.63-2.87-5.13,2-5.7,4.6-15.44,4.6-20.44,0,0-1-12.25-1.76-14.94A76.79,76.79,0,0,0,212.05,520.35Z"/><rect class="cls-76" x="228.38" y="540.37" width="5.83" height="4.33"/><polygon class="cls-55" points="215.31 563.26 196.13 563.26 200.63 550.49 219.81 550.49 215.31 563.26"/><polygon class="cls-77" points="215.31 563.26 196.13 563.26 200.63 550.49 219.81 550.49 215.31 563.26"/><polygon class="cls-78" points="200.63 576.03 219.81 576.03 215.31 563.26 196.13 563.26 200.63 576.03"/><polygon class="cls-77" points="215.31 588.81 196.13 588.81 200.63 576.03 219.81 576.03 215.31 588.81"/><polygon class="cls-78" points="200.63 601.58 219.81 601.58 215.31 588.81 196.13 588.81 200.63 601.58"/><rect class="cls-56" x="201.75" y="552.62" width="10.94" height="0.47"/><rect class="cls-56" x="201.1" y="554.33" width="10.94" height="0.47"/><rect class="cls-56" x="200.39" y="556.05" width="8.85" height="0.47"/><rect class="cls-56" x="201.75" y="578.08" width="10.94" height="0.47"/><rect class="cls-56" x="201.1" y="579.79" width="5.47" height="0.47"/><path class="cls-26" d="M210.7,543.9s.1.33.28.88c.31.94,1.32,2,.7,3.31s-5.26.47-6-.13-.41-2.57,1.21-5.1S210.7,543.9,210.7,543.9Z"/><path class="cls-26" d="M211.82,547.62a40.86,40.86,0,0,1-.38,4.49c-.3,2.07-1,4.59-1.49,4.53-.79-.11,0-2.12.15-4.19.14-1.91-.21-1.56-.21-1.56s.11-.09-.46,2-1.36,4.54-1.79,4.49-.59-.11-.5-1c-.16.47-.31.5-.51.45-1.06-.24-.67-3.61-.51-5-.13,1-.33,1.77-.88,1.2s.13-5.39.24-7.11C205.6,544.09,211.82,547.62,211.82,547.62Z"/><path class="cls-72" d="M212.28,530.21l-.09,15.51a26.9,26.9,0,0,1-7.35-1.72l-.3-21.86Z"/><path class="cls-79" d="M170.09,521.66l-10.76,24.25-.29.65a3.09,3.09,0,0,1-1.2-.12l.24-.54,10.66-24L153.2,505.18l-2.33-.5.25-1.12,2.68.58Z"/><path class="cls-80" d="M153.51,550.6h10a4.41,4.41,0,0,0-.11-.61c-.3-1.18-1.39-3.68-5.27-3.68s-4.51,2.5-4.59,3.68A4.92,4.92,0,0,0,153.51,550.6Z"/><path class="cls-81" d="M143.37,499.82l.67,1.9,4.08,11.56a7.07,7.07,0,0,0,3.79-3.13,7.14,7.14,0,0,0-8.54-10.33Z"/><path class="cls-82" d="M159.58,545.91v.53a2.3,2.3,0,0,1-.54.12,3.09,3.09,0,0,1-1.2-.12l-.07,0v-.51h1.81Z"/><path class="cls-83" d="M153.51,550.6h10a4.41,4.41,0,0,0-.11-.61h-9.86A4.92,4.92,0,0,0,153.51,550.6Z"/><path class="cls-82" d="M143.37,499.82l.67,1.9c2.38,1.88,6.08,5.13,7.87,8.43a7.14,7.14,0,0,0-8.54-10.33Z"/><path class="cls-26" d="M109.75,520.28s1.74-2.2,2-2.52a6.11,6.11,0,0,1,2.62-.88,6.55,6.55,0,0,1,3.18.24,1.18,1.18,0,0,1,.42.89,2.76,2.76,0,0,1-.2,1.18,1.54,1.54,0,0,1,0,1.38,1.35,1.35,0,0,1-.18,1.38,1.13,1.13,0,0,1-.1,1.15,8.57,8.57,0,0,0-1.46.55,16.78,16.78,0,0,1-4.89.81S109.06,523.76,109.75,520.28Z"/><polygon class="cls-84" points="59.67 588.01 49.78 629.25 47.6 629.25 55.99 587.93 59.67 588.01"/><polygon class="cls-84" points="70.46 588.01 60.57 629.25 58.39 629.25 66.78 587.93 70.46 588.01"/><polygon class="cls-84" points="87.91 588.01 97.8 629.25 99.98 629.25 91.59 587.93 87.91 588.01"/><path class="cls-85" d="M97.27,588.42H54.66s-3-.07-5-8.86c-2.24-9.9-6.75-42.93-6.75-42.93s1.2-3.08,19.93-2.69l33.55,43.53S97.57,584.33,97.27,588.42Z"/><path class="cls-26" d="M98.58,547.18a7.41,7.41,0,0,1,3.8-.56c1.63.38,5.44,1.81,7.33,2s3.68,1.33,3.64,2-14.54,1.14-14.61-.29S98.58,547.18,98.58,547.18Z"/><path class="cls-26" d="M109.75,520.28s-2.83,1.86-2.89,2.43a15.27,15.27,0,0,0,.55,3.84l4.27-2.11Z"/><path class="cls-69" d="M109.7,622.23s3.65,2.17,5.3,3,8.09,1,8.72,1.66.4,2.53-.67,2.72-8.89.88-11.5.27-7.48.39-8.56,0-.37-6.19.05-7.5S109.7,622.23,109.7,622.23Z"/><path class="cls-86" d="M109.64,619.77l.06,2.46s-4.9.9-6.66.15l.12-2.7Z"/><path class="cls-72" d="M118.25,622.23s3.65,2.17,5.3,3,8.09,1,8.72,1.66.4,2.53-.67,2.72-8.89.88-11.5.27-7.48.39-8.56,0-.37-6.19,0-7.5S118.25,622.23,118.25,622.23Z"/><path class="cls-86" d="M118.19,619.77l.06,2.46s-4.9.9-6.66.15l.12-2.7Z"/><polygon class="cls-87" points="89.46 562.39 83.9 561.42 87.61 552.09 89.46 562.39"/><path class="cls-88" d="M72.81,564.3s27.92,5.93,32.28,7.78,7,2.61,7.29,3.54,7.14,45.2,7.14,45.2h-9.26s-7.19-33.44-8.06-35.51-35.4-2.18-37.9-4.68-4.69-9.37-2-15.52S72.81,564.3,72.81,564.3Z"/><path class="cls-88" d="M87,561.19s32,9,34.64,13.12-10.68,46.51-10.68,46.51h-9.15s8.83-39.65,7.74-41.39-49.34,0-40.36-14.32S87,561.19,87,561.19Z"/><path class="cls-72" d="M83.62,516.69c1.21-.62,5.23.75,6.41,2.6a76.19,76.19,0,0,0,8,9.6l11.62-9.77,2.33,5.82-13.8,11.64a3,3,0,0,1-4-.14c-3.63-3.52-11.09-10.93-11.66-12.78C81.72,521.21,81.32,517.89,83.62,516.69Z"/><path class="cls-48" d="M79.69,491.81s5.55.92,5.61,10.34-3.52,10.31-8.93,8.93c-3.26-.83-6.32-5.44-5.12-13.56S79.69,491.81,79.69,491.81Z"/><path class="cls-55" d="M80.42,514.3s7.65,2.78,8.8,4.52.4,17.42-.25,23-2.45,17.7-2,19.34l-17.81,3.92S63.42,544.3,63.26,541s-4.36-18.79-2.34-20,10.78-6.15,10.78-6.15Z"/><polygon class="cls-89" points="69.14 565.11 68.27 561.89 86.99 558.25 86.95 561.19 69.14 565.11"/><polygon class="cls-90" points="78.45 559.74 82.89 558.82 82.89 562.33 78.45 563.37 78.45 559.74"/><path class="cls-72" d="M76.47,550.6c0,.92-.11,1.85-.16,2.79h0c-.63,10.34-1.58,21.15-1.58,21.15-1.3,1.09-17.79-2.74-17.79-2.74s2-2.76,4-10.4.43-14.95-1.61-27.36S59,521.71,59,521.71l12.74-6.93c.84,3.18,4.22,14.7,5,21.3A120,120,0,0,1,76.47,550.6Z"/><path class="cls-72" d="M80.54,514.32a110.72,110.72,0,0,1,5.29,19.36c1.6,10,1.52,28,3.26,28.47s1.21.14,1.21.14-.33-10.9-.49-14.52c-.35-8.07,1.15-26.26.45-28.09S84.57,515.05,80.54,514.32Z"/><path class="cls-48" d="M80.24,512.81a4.39,4.39,0,0,0,.18,1.48s-1,3.82-8.72.49c0,0,1.53-5.69,0-10.46l8.72,5.4s-.11.86-.16,1.87C80.24,512,80.22,512.42,80.24,512.81Z"/><path class="cls-91" d="M72,513.27A20.53,20.53,0,0,0,78.13,515l-1.5,3.18-4.93-3.41Z"/><path class="cls-91" d="M78.13,515s2.13-.7,2.12-1.75l.29,1.05-.87,3.35Z"/><path class="cls-92" d="M84.63,497.26s1.56-3.34.43-5.78S81,490,79.65,490.34s-3.88-2.69-8.38.94-3.16,7.44-1.17,12,2.24,4.89,2.24,4.89,0-4.61.56-5.43,3-1.46,3-1.46-1.78-2.43,0-3.34S81.19,498.7,84.63,497.26Z"/><path class="cls-48" d="M73.59,500.32c-.24-.7-1.41-1.49-2-.18s1,3.59,1.78,3.59S74.13,501.92,73.59,500.32Z"/><path class="cls-20" d="M78.13,515,79.24,517s-.51.59-2.17.33Z"/><path class="cls-20" d="M79,517.11s4.57,13.45,4.61,23a123.81,123.81,0,0,1-.72,15.25l-1,1.88-1.47-1.72s1-27.72-3-38.2C77.39,517.32,78.83,516.63,79,517.11Z"/><path class="cls-72" d="M60.37,520.94c3.35-1.36,6.81,3.27,8.66,7.9s5.4,13,5.4,13l24.73,4,.34,4.7H70.65s-11-19.69-11.76-22.14S58,521.92,60.37,520.94Z"/><rect class="cls-85" x="90.74" y="550.6" width="81.54" height="2.81"/><rect class="cls-93" x="138.52" y="501.44" width="1.96" height="43.53"/><path class="cls-94" d="M143.34,550.6H158v-.89H143.34a2.11,2.11,0,0,1-1.64-.54,1.46,1.46,0,0,1-.33-1v-19h-.89v19a2.34,2.34,0,0,0,.53,1.68A3,3,0,0,0,143.34,550.6Z"/><path class="cls-93" d="M122.28,549h16.54a0,0,0,0,1,0,0v0a1.56,1.56,0,0,1-1.56,1.56h-15a0,0,0,0,1,0,0V549A0,0,0,0,1,122.28,549Z" transform="translate(261.11 1099.64) rotate(180)"/><rect class="cls-95" x="163.8" y="553.41" width="2.32" height="76.31" transform="translate(329.93 1183.13) rotate(180)"/><rect class="cls-95" x="96.9" y="553.41" width="2.32" height="76.31" transform="translate(196.12 1183.13) rotate(180)"/><path class="cls-89" d="M76.47,550.6c0,.92-.11,1.85-.16,2.79h0a12.34,12.34,0,0,1-5.91-.79c-2.71-1.23-4.58-10.54-4.71-11,.27.53,4.59,9,5.65,9Z"/><path class="cls-30" d="M80.26,511.59c0,.4,0,.83,0,1.22-6.15.1-6.25-3.41-6.25-3.41C75,511.94,80.26,511.59,80.26,511.59Z"/><rect class="cls-29" x="112.35" y="516.36" width="9.34" height="0.79" transform="translate(-326.05 226.21) rotate(-43.99)"/><polygon class="cls-26" points="120.11 513.22 121.37 512.55 120.66 513.79 120.11 513.22"/><path class="cls-96" d="M117.22,517.17s-3.18.68-3.17,1.26a.87.87,0,0,0,.34.76l-1.23.93a.91.91,0,0,0,.71,1.35s-.57,1,.63,1c0,0-.12.82.43,1a10.19,10.19,0,0,0,2.59-.39s.48-.32.19-1.15a1.36,1.36,0,0,0,.18-1.38,1.48,1.48,0,0,0,0-1.38s.63-1.36-.3-2.07Z"/><path class="cls-26" d="M111.86,517.72a9.87,9.87,0,0,1,3.07,1.6.74.74,0,0,1,.3.77c-.11.32-.64.57-1.57.33a7.15,7.15,0,0,0-2.23-.07S110.56,519.79,111.86,517.72Z"/><path class="cls-97" d="M114.55,588.82s-2-12.21-2.06-12.71-2.1-2.27-11.62-5.39c0,0,10.58,2.06,13.36,3.86C116.37,576,114.55,588.82,114.55,588.82Z"/><path class="cls-98" d="M154.38,550.6c1.05-.44,2.74-5.37,3.55-7.92.29-.91.46-1.52.46-1.52h-9.55a29,29,0,0,0,2.83,9.44Z"/><path class="cls-99" d="M155.15,538.22c0-.34,1.53-1.78,2.3-2.71s-.29-2.72-.29-2.72c-3.42,1.41-2.83,5.43-2.83,5.43S155.15,538.57,155.15,538.22Z"/><path class="cls-99" d="M153.2,538.38h.42s.29-7-2.24-7.89-2.54-2.83-2.54-2.83-.77,2.59.47,4,2.66,2.95,2.42,4.24S153.2,538.38,153.2,538.38Z"/><path class="cls-100" d="M157.93,542.68c.29-.91.46-1.52.46-1.52h-9.55a29,29,0,0,0,2.83,9.44h.63C152.18,545.08,155.82,543.26,157.93,542.68Z"/><polygon class="cls-101" points="158.39 538.22 148.77 538.22 148.22 541.16 158.78 541.16 158.39 538.22"/></g></g></svg>