<svg id="Слой_1" data-name="Слой 1" xmlns="http://www.w3.org/2000/svg" xmlns:xlink="http://www.w3.org/1999/xlink" viewBox="0 0 600 800"><defs><style>.cls-1{fill:url(#linear-gradient);}.cls-2{fill:url(#linear-gradient-2);}.cls-3{fill:url(#linear-gradient-3);}.cls-4{fill:url(#linear-gradient-4);}.cls-5{fill:#8f8f8f;}.cls-6{fill:#f0f0f0;}.cls-7{fill:#fff;}.cls-8{fill:url(#linear-gradient-5);}.cls-9{fill:#ccc;}.cls-10{fill:#f5f7ff;}.cls-11{fill:#e6e6e6;}.cls-12{fill:#78c2ff;}.cls-13{fill:#f3f3f3;}.cls-14{fill:#eef0f7;}.cls-15{fill:#e0e0e0;}.cls-16{fill:#b8b8b8;}.cls-17{fill:#d9d9d9;}.cls-18{fill:url(#linear-gradient-6);}.cls-19{fill:url(#linear-gradient-7);}.cls-20{fill:#f0c141;}.cls-21{fill:url(#linear-gradient-8);}.cls-22{fill:url(#linear-gradient-9);}.cls-23{fill:url(#linear-gradient-10);}.cls-24{fill:url(#linear-gradient-11);}.cls-25{fill:url(#linear-gradient-12);}.cls-26{fill:url(#linear-gradient-13);}.cls-27{fill:#eea886;}.cls-28{fill:#db9c7c;}.cls-29{fill:#323657;}.cls-30{fill:#4da8f2;}.cls-31{fill:#efaa88;}.cls-32{fill:#424773;}.cls-33{fill:#292c47;}.cls-34{fill:#d88a51;}.cls-35{fill:#e2d2ca;}.cls-36{fill:#dfe1e8;}.cls-37{fill:#de9673;}.cls-38{fill:#2f4563;}.cls-39{fill:#1e2d40;}.cls-40{fill:#23344a;}.cls-41{fill:#41608a;}.cls-42{fill:#eea987;}.cls-43{fill:#eb4747;}.cls-44{fill:#464240;}.cls-45{fill:#a77860;}.cls-46{fill:#6e6760;}.cls-47{fill:#5c544d;}.cls-48{fill:#3c4145;}.cls-49{fill:#33373b;}.cls-50{fill:#fccca2;}.cls-51{fill:#d6d6d6;}.cls-52{fill:#c98462;}.cls-53{fill:#de9d7d;}.cls-54{fill:#1d3b54;}.cls-55{fill:#434343;}.cls-56{fill:#cf8c6c;}</style><linearGradient id="linear-gradient" x1="-12860.2" y1="-47.03" x2="-12731.41" y2="-47.03" gradientTransform="matrix(-1, -0.05, -0.05, 1, -12683.44, -315.82)" gradientUnits="userSpaceOnUse"><stop offset="0" stop-color="#40d5e6"/><stop offset="1" stop-color="#57f"/></linearGradient><linearGradient id="linear-gradient-2" x1="-3715.75" y1="3614.43" x2="-3715.75" y2="3523.87" gradientTransform="translate(557.38 -4782.2) rotate(-41.45)" xlink:href="#linear-gradient"/><linearGradient id="linear-gradient-3" x1="-12847.87" y1="-85.91" x2="-12786.91" y2="-85.91" xlink:href="#linear-gradient"/><linearGradient id="linear-gradient-4" x1="-2029.95" y1="3042.48" x2="-2029.95" y2="2953.56" gradientTransform="translate(419.83 -3309.94) rotate(-29.45)" xlink:href="#linear-gradient"/><linearGradient id="linear-gradient-5" x1="146.02" y1="227.75" x2="514.82" y2="227.75" gradientTransform="translate(660.84 455.49) rotate(-180)" xlink:href="#linear-gradient"/><linearGradient id="linear-gradient-6" x1="388.03" y1="297.84" x2="184.41" y2="297.84" gradientTransform="matrix(1, 0, 0, 1, 0, 0)" xlink:href="#linear-gradient"/><linearGradient id="linear-gradient-7" x1="166.51" y1="292.99" x2="366.18" y2="292.99" gradientTransform="matrix(1, 0, 0, 1, 0, 0)" xlink:href="#linear-gradient"/><linearGradient id="linear-gradient-8" x1="-6122.98" y1="551.9" x2="-6069.38" y2="551.9" gradientTransform="matrix(-1, 0, 0, 1, -6021.13, 0)" xlink:href="#linear-gradient"/><linearGradient id="linear-gradient-9" x1="-6083.66" y1="581.81" x2="-6035.18" y2="581.81" gradientTransform="matrix(-1, 0, 0, 1, -6021.13, 0)" xlink:href="#linear-gradient"/><linearGradient id="linear-gradient-10" x1="-6079.51" y1="588.86" x2="-6043.13" y2="588.86" gradientTransform="matrix(-1, 0, 0, 1, -6021.13, 0)" xlink:href="#linear-gradient"/><linearGradient id="linear-gradient-11" x1="-6092.65" y1="559.58" x2="-6050.28" y2="559.58" gradientTransform="matrix(-1, 0, 0, 1, -6021.13, 0)" xlink:href="#linear-gradient"/><linearGradient id="linear-gradient-12" x1="36.11" y1="620.36" x2="75.21" y2="620.36" gradientTransform="translate(6.03)" gradientUnits="userSpaceOnUse"><stop offset="0" stop-color="#ff9340"/><stop offset="1" stop-color="#ffce45"/></linearGradient><linearGradient id="linear-gradient-13" x1="36.11" y1="620.36" x2="75.21" y2="620.36" gradientTransform="translate(6.03)" gradientUnits="userSpaceOnUse"><stop offset="0" stop-color="#c97332"/><stop offset="1" stop-color="#ffce45"/></linearGradient></defs><path class="cls-1" d="M149.57,332.46c8.35,18.21,13,35.45,6.89,43.14a9.4,9.4,0,0,1-1.19,1.25c-4.73,4.17-14.05,4.27-29.77-1.94C83.66,358.38,81.67,329.85,73.21,302,64.87,274.49,35.72,279.14,35,279.26,102.89,255.61,135.41,301.57,149.57,332.46Z"/><path class="cls-2" d="M156.46,375.6a9.4,9.4,0,0,1-1.19,1.25c-7.86-4.73-22.91-14.77-30-26a167.6,167.6,0,0,1-9.15-17.63c-5.63-12-11.46-24.34-21.64-33.83l1.14-1.22c10.41,9.71,16.3,22.23,22,34.35a162,162,0,0,0,9,17.44C133.59,360.91,148.8,371,156.46,375.6Z"/><path class="cls-3" d="M142.3,339.9c-.49,1.21-.81,1.9-.85,2-.13-.67-.25-1.33-.38-2-5.58-28.6-13-31.59-35.43-56.61-22.88-25.59-9.72-49.43-9.72-49.43C172.6,256,147.51,327.11,142.3,339.9Z"/><path class="cls-4" d="M142.3,339.9c-.49,1.21-.81,1.9-.85,2-.13-.67-.25-1.33-.38-2,2.49-24.73-12.43-53.74-17.12-58.95-4.85-5.39-7.84-12.8-9-15.59-.19-.47-.37-.91-.43-1l1.08-.61a11.08,11.08,0,0,1,.5,1.15c1.1,2.74,4,10,8.74,15.23C130.82,286.72,144.58,315.87,142.3,339.9Z"/><rect class="cls-5" x="278.75" y="420.83" width="46.34" height="140.75" transform="translate(603.84 982.4) rotate(180)"/><rect class="cls-6" x="130.35" y="241.6" width="400.13" height="282.27" rx="61.33" transform="translate(660.84 765.47) rotate(180)"/><rect class="cls-7" x="146.02" y="211.56" width="368.79" height="268.08" transform="translate(660.84 691.2) rotate(180)"/><rect class="cls-8" x="146.02" y="211.56" width="368.79" height="32.38" transform="translate(660.84 455.49) rotate(180)"/><path class="cls-9" d="M469.94,499.88c0,7.13,6.79,12.91,15.17,12.91s15.18-5.78,15.18-12.91S493.49,487,485.11,487,469.94,492.75,469.94,499.88Z"/><rect class="cls-10" x="161.43" y="221.63" width="52.6" height="12.24" rx="4.5"/><rect class="cls-11" x="173.04" y="356.76" width="193.08" height="6.64"/><rect class="cls-11" x="173.04" y="368.71" width="143.21" height="6.64"/><rect class="cls-11" x="173.04" y="394.68" width="90.81" height="6.64"/><rect class="cls-11" x="173.04" y="406.64" width="163.14" height="6.64"/><rect class="cls-11" x="173.04" y="435.2" width="152.83" height="6.64"/><rect class="cls-11" x="173.04" y="447.15" width="186.62" height="6.64"/><rect class="cls-12" x="163.62" y="356.76" width="4.85" height="18.59"/><rect class="cls-12" x="163.62" y="394.68" width="4.85" height="18.59"/><rect class="cls-12" x="163.62" y="435.2" width="4.85" height="18.59"/><rect class="cls-12" x="409.23" y="435.57" width="26.59" height="26.59" rx="9.79"/><path class="cls-13" d="M421.68,454.72,415,448.86a1.33,1.33,0,1,1,1.74-2l4.75,4.15,6.78-7.56a1.32,1.32,0,1,1,2,1.76Z"/><path class="cls-12" d="M429.77,421.66h-14.5a6.07,6.07,0,0,1-6.06-6.06V401.1a6.07,6.07,0,0,1,6.06-6.06h14.5a6.07,6.07,0,0,1,6.06,6.06v14.5A6.07,6.07,0,0,1,429.77,421.66Zm-14.5-24.93a4.37,4.37,0,0,0-4.37,4.37v14.5a4.37,4.37,0,0,0,4.37,4.37h14.5a4.37,4.37,0,0,0,4.37-4.37V401.1a4.37,4.37,0,0,0-4.37-4.37Z"/><path class="cls-12" d="M469.81,462.17h-14.5a6.06,6.06,0,0,1-6.06-6.06v-14.5a6.07,6.07,0,0,1,6.06-6.06h14.5a6.06,6.06,0,0,1,6.06,6.06v14.5A6.06,6.06,0,0,1,469.81,462.17Zm-14.5-24.93a4.37,4.37,0,0,0-4.37,4.37v14.5a4.38,4.38,0,0,0,4.37,4.38h14.5a4.39,4.39,0,0,0,4.38-4.38v-14.5a4.38,4.38,0,0,0-4.38-4.37Z"/><rect class="cls-12" x="449.27" y="395.05" width="26.59" height="26.59" rx="9.79"/><path class="cls-13" d="M461.72,414.21,455,408.34a1.32,1.32,0,1,1,1.74-2l4.75,4.14,6.78-7.56a1.33,1.33,0,0,1,2,1.77Z"/><path class="cls-12" d="M469.81,381.14h-14.5a6.07,6.07,0,0,1-6.06-6.06v-14.5a6.07,6.07,0,0,1,6.06-6.06h14.5a6.06,6.06,0,0,1,6.06,6.06v14.5A6.06,6.06,0,0,1,469.81,381.14Zm-14.5-24.93a4.37,4.37,0,0,0-4.37,4.37v14.5a4.38,4.38,0,0,0,4.37,4.38h14.5a4.39,4.39,0,0,0,4.38-4.38v-14.5a4.38,4.38,0,0,0-4.38-4.37Z"/><rect class="cls-12" x="409.23" y="354.54" width="26.59" height="26.59" rx="9.79"/><path class="cls-13" d="M421.68,373.69,415,367.83a1.33,1.33,0,1,1,1.74-2l4.75,4.15,6.78-7.56a1.32,1.32,0,1,1,2,1.76Z"/><path class="cls-14" d="M481.31,296.87a39.19,39.19,0,1,1-39.18-39.19A39,39,0,0,1,481.31,296.87Z"/><path class="cls-12" d="M470.15,317.87a5,5,0,0,0-.65-.38l0,0h0c-1.72-1-6.76-3.46-16.71-6.31h0c-1.8-.55-3.16-.91-3.63-1l-.84-1.34a41.3,41.3,0,0,1-.07-4.72c1.4-1.62,2.66-4.16,3.37-8.12.23.17.4-.2.4-.2-.12-.23,1.9-5.15,1.53-6.26-.2-.63-.62-.55-.95-.37.05-.29.1-.58.15-.9,0,0,.8-7.55-3-11.75a4.27,4.27,0,0,0-1.8-.48c-6.14-1.88-9.82-1-12.12-.05-3.42,2.8-3.68,7.56-3.52,10.19.06.62.14,1.24.21,1.85v0c0,.24.06.48.08.71-.32-.2-.73-.3-1,.33-.4,1.09,1.09,6,1.27,6.31,0,0,.33.51.58.28h0c.71,4.31,2,7,3.31,8.62-.1,1.75-.35,3.82-.53,5.13L434.68,311h0l-.24.08h0c-17.16,4.57-22,7.76-22,7.76a4.58,4.58,0,0,0-1.32,2,39.18,39.18,0,0,0,61,1.25C471.39,320.27,470.86,318.58,470.15,317.87Z"/><rect class="cls-15" x="166.16" y="265.99" width="0.7" height="66.21"/><rect class="cls-15" x="216.05" y="265.99" width="0.7" height="66.21"/><rect class="cls-15" x="265.94" y="265.99" width="0.7" height="66.21"/><rect class="cls-15" x="315.83" y="265.99" width="0.7" height="66.21"/><rect class="cls-15" x="365.73" y="265.99" width="0.7" height="66.21"/><rect class="cls-16" x="166.51" y="336.13" width="7.94" height="2.3"/><rect class="cls-17" x="166.51" y="257.83" width="11.95" height="1.73"/><rect class="cls-17" x="166.51" y="261.02" width="16.95" height="1.73"/><rect class="cls-17" x="215.86" y="257.83" width="14.03" height="1.73"/><rect class="cls-17" x="215.86" y="261.02" width="8.97" height="1.73"/><rect class="cls-17" x="266.64" y="257.83" width="8.69" height="1.73"/><rect class="cls-17" x="266.64" y="261.02" width="10.13" height="1.73"/><rect class="cls-17" x="316.54" y="257.83" width="12.66" height="1.73"/><rect class="cls-17" x="316.54" y="261.02" width="10.13" height="1.73"/><rect class="cls-17" x="366.08" y="257.83" width="7.56" height="1.73"/><rect class="cls-17" x="366.08" y="261.02" width="6.05" height="1.73"/><rect class="cls-16" x="216.4" y="336.13" width="7.94" height="2.3"/><rect class="cls-16" x="266.64" y="336.13" width="7.94" height="2.3"/><rect class="cls-16" x="316.54" y="336.13" width="7.94" height="2.3"/><rect class="cls-16" x="366.43" y="336.13" width="7.94" height="2.3"/><path class="cls-18" d="M348.79,312.53c-15.56,0-29.09-6-43.19-12.36-17.41-7.79-35.42-15.84-59.4-13.63-15.32,1.41-24.93,7-33.42,12-7.68,4.48-14.94,8.42-24.77,8.75-15.9.55-21.41-5.55-21.5-5.92v-3.91h0c0,.07,3.49,6.91,21.48,6.83,8.86,0,15.4-3.86,23-8.28,8.8-5.13,18.78-11,34.9-12.44,24.94-2.29,43.39,6,61.22,13.94,18.67,8.35,36.48,16.17,59,9.38v3.22A56.28,56.28,0,0,1,348.79,312.53Z"/><path class="cls-19" d="M255.38,311.78c-11.49,0-20.6-6.95-29.52-13.75-6.76-5.16-13.78-10.43-21.88-13-24.71-7.94-37.36,6.56-37.47,6.68v-4.41c.13-.15,2.39-2.78,8.91-5.3,6-2.29,15.91-4.11,29.66.19,8.71,2.72,15.95,8.24,22.95,13.58,14.19,10.82,26.45,20.17,47.73,5.53,16.12-11.09,31.32-21.66,46.28-25.52,14.62-3.78,29.87-1,44.14,11.83l-.1,4c-30.32-27.39-56.14-10-88.29,12.07C269.28,309.51,261.94,311.78,255.38,311.78Z"/><path class="cls-20" d="M506.09,176.27l-8.58-14.05a2.44,2.44,0,0,1,4.17-2.55l6.06,9.93,16.14-9.54a2.44,2.44,0,0,1,2.49,4.2Z"/><path class="cls-20" d="M511.85,197.92a30.86,30.86,0,1,1,30.85-30.86A30.89,30.89,0,0,1,511.85,197.92Zm0-57.31a26.45,26.45,0,1,0,26.45,26.45A26.48,26.48,0,0,0,511.85,140.61Z"/><path class="cls-20" d="M410.52,130.88l-5.3-8.68a1.51,1.51,0,0,1,2.58-1.58l3.75,6.14,10-5.9a1.51,1.51,0,0,1,1.53,2.6Z"/><path class="cls-20" d="M414.08,144.26a19.07,19.07,0,1,1,19.07-19.07A19.09,19.09,0,0,1,414.08,144.26Zm0-35.41a16.35,16.35,0,1,0,16.35,16.34A16.36,16.36,0,0,0,414.08,108.85Z"/><path class="cls-20" d="M312.46,98.84l-8.13-13.32a2.32,2.32,0,1,1,3.95-2.42L314,92.52l15.3-9a2.32,2.32,0,0,1,2.36,4Z"/><path class="cls-20" d="M317.92,119.37a29.26,29.26,0,1,1,29.26-29.26A29.29,29.29,0,0,1,317.92,119.37Zm0-54.33A25.08,25.08,0,1,0,343,90.11,25.1,25.1,0,0,0,317.92,65Z"/><path class="cls-20" d="M226.43,130.76l-5.38-8.8a1.53,1.53,0,0,1,2.62-1.6l3.8,6.23,10.1-6a1.53,1.53,0,1,1,1.56,2.63Z"/><path class="cls-20" d="M230,144.32A19.33,19.33,0,1,1,249.36,125,19.35,19.35,0,0,1,230,144.32Zm0-35.89A16.57,16.57,0,1,0,246.6,125,16.58,16.58,0,0,0,230,108.43Z"/><path class="cls-20" d="M150.92,88.49l-6.73-11a1.92,1.92,0,0,1,3.27-2l4.76,7.79,12.65-7.48a1.92,1.92,0,0,1,1.95,3.3Z"/><path class="cls-20" d="M155.43,105.47a24.2,24.2,0,1,1,24.2-24.2A24.22,24.22,0,0,1,155.43,105.47Zm0-44.94a20.74,20.74,0,1,0,20.74,20.74A20.77,20.77,0,0,0,155.43,60.53Z"/><path class="cls-20" d="M65.21,143.25,57.75,131a2.13,2.13,0,0,1,3.63-2.22l5.27,8.64,14-8.3a2.13,2.13,0,0,1,2.17,3.66Z"/><path class="cls-20" d="M70.22,162.08A26.83,26.83,0,1,1,97,135.25,26.86,26.86,0,0,1,70.22,162.08Zm0-49.82a23,23,0,1,0,23,23A23,23,0,0,0,70.22,112.26Z"/><path class="cls-20" d="M474.46,93l-4.24-7a1.21,1.21,0,1,1,2.06-1.26l3,4.91,8-4.72a1.21,1.21,0,1,1,1.23,2.08Z"/><path class="cls-20" d="M477.31,103.74a15.26,15.26,0,1,1,15.25-15.25A15.27,15.27,0,0,1,477.31,103.74Zm0-28.33a13.08,13.08,0,1,0,13.07,13.08A13.1,13.1,0,0,0,477.31,75.41Z"/><rect class="cls-9" x="223.61" y="557.27" width="153.47" height="7.82"/><path class="cls-21" d="M97.16,481.07c-4.62-2.21-9.22,12.5-9.22,12.5C80.08,504,69.1,490.15,70.18,505.66c1.88,27.16-31.26,8.54-16,36.89s-13.5,16-4,38.89-2.81,50.12,11.48,38.92c0,0,12.59-27.6,25.57-36.14S79.48,565.55,83.54,554c5.9-16.84,20.11-16.18,9.86-34.28S112.87,488.58,97.16,481.07Z"/><path class="cls-7" d="M57.17,610c6.19-4.36,13.44-34.72,13.87-52.81.23-9.26,3-13.12,5.38-16.53,2.31-3.25,4.3-6.06,3.14-12.52-2.22-12.33,3.62-17.66,3.68-17.71l-.68-.77c-.26.23-6.34,5.72-4,18.67,1.09,6-.7,8.55-3,11.74-2.37,3.35-5.33,7.52-5.56,17.1-.46,19.41-7.88,48.08-13.44,52Z"/><path class="cls-22" d="M44.18,601.11c-.59-1.32-1.19-2.69-1.88-4.14-3.53-7.47-6.67-8.7-11.86-10.74-1.27-.5-2.71-1.06-4.29-1.77-7.44-3.34-6-8.27-4.73-12.62.18-.61.36-1.21.51-1.81.65-2.56-.6-3.84-2.51-5.79a21.86,21.86,0,0,1-4.53-6.07c-1.48-3.11-.73-4.77.17-5.62,1.89-1.79,6.24-1.46,10.35.78h0a15,15,0,0,1,3.44,3c2.62,2.75,5.88,6.16,14.12,6.2,4.71,0,7.28.67,8.61,2.17,1.52,1.7,1.23,4.25.84,7.77-.14,1.22-.29,2.6-.39,4.09a23.93,23.93,0,0,0,4.75,15.4c3.14,3.74,7,11.5,5.34,16.27a5.74,5.74,0,0,1-4.65,3.75,13.38,13.38,0,0,1-2.62.28C49.08,612.22,47,607.44,44.18,601.11ZM24.92,554.23c-3.67-2-7.61-2.41-9.16-.94-1.17,1.12-.62,3,.06,4.44a20.53,20.53,0,0,0,4.33,5.8c2,2,3.57,3.63,2.77,6.75-.16.61-.34,1.23-.52,1.85-1.26,4.33-2.46,8.42,4.17,11.39,1.56.7,3,1.26,4.24,1.76,5.24,2.06,8.71,3.41,12.42,11.25.69,1.46,1.3,2.84,1.89,4.17,3.2,7.26,5.14,11.65,12.14,10.23a4.74,4.74,0,0,0,3.89-3.08c1.48-4.21-2-11.57-5.16-15.28a24.48,24.48,0,0,1-5-16.11c.1-1.52.25-2.91.39-4.14.36-3.26.63-5.62-.58-7s-3.53-1.8-7.85-1.83c-8.68,0-12.11-3.62-14.86-6.51a14.2,14.2,0,0,0-3.19-2.77Z"/><path class="cls-23" d="M57.36,618.14l1-.06c-.05-1-1.34-23.62-10.44-30.25-10-7.28-13.13-15.1-14.63-20.34-1.76-6.19-10.75-7.84-11.13-7.91l-.18,1c.08,0,8.74,1.61,10.33,7.18,1.54,5.39,4.77,13.43,15,20.89C56,595,57.34,617.91,57.36,618.14Z"/><path class="cls-24" d="M36.55,503.94c6.47-2.22,5.13,10.24,7.86,19.47s30.4,4,18.79,27.11S77.88,558.25,70,578.4s-.69,41.7-9.23,36.22S56,583.76,47.13,580.75,36.8,574.21,45.59,566s-23-16.34-15.18-32.89S29.08,506.5,36.55,503.94Z"/><path class="cls-7" d="M56.84,613.65c.82-3.45,7.76-33.81,1.28-37.48-5.71-3.23-5.57-15.81-4.68-27.69.79-10.52-12.72-15.43-13.29-15.63l-.34,1c.13.05,13.34,4.86,12.61,14.59-.92,12.2-1,25.15,5.2,28.67,4.92,2.78.39,27.18-1.77,36.35Z"/><polygon class="cls-25" points="81.24 602.84 72.01 637.87 51.38 637.87 42.14 602.84 81.24 602.84"/><path class="cls-26" d="M81.24,602.84s-20.32,3.82-20.32,35H51.37l-9.23-35Z"/><path class="cls-27" d="M278.89,538.2a6.15,6.15,0,0,1,.8,2.11,9.94,9.94,0,0,0,1,2.5,23.94,23.94,0,0,1,1.18,4.16,19.38,19.38,0,0,0-.55,2.79c.09.6.43,1.79-.11,1.87s-1.15-.9-1.15-.9a.8.8,0,0,1-.41.77,1.34,1.34,0,0,1-1.36,0s-.33.61-.74.69a1.71,1.71,0,0,1-1.36-.18,1.64,1.64,0,0,1-1,.33,1.37,1.37,0,0,1-1.15-.71s-1,.2-1.31-.27a4.65,4.65,0,0,1-.36-1.41,16.34,16.34,0,0,1,1.29-7.12,6.29,6.29,0,0,0-.34-5.52Z"/><path class="cls-28" d="M280.18,550.37s.09-3.49-.83-4.23-1,.52-1,.52.13-1.25-.87-1.42-1,1.31-1,1.31a1,1,0,0,0-1.22-.76c-1.05.2-.8,1.42-.8,1.42s-1-1.2-1.66-.05a5.16,5.16,0,0,0,0,4.25s.31.53,1.31.27a1.39,1.39,0,0,0,2.17.38s1.54.84,2.1-.51A1.27,1.27,0,0,0,280.18,550.37Z"/><path class="cls-29" d="M290.72,488s-6,19.89-8,27.23c-.63,2.3-2.16,24.27-2.43,25.16s-7.84,2.09-7.84,2.09.92-27.49,1-29,8.36-32.19,10.76-33.29c1.8-.82,2.75-.14,5,1.54C292.43,484.09,290.72,488,290.72,488Z"/><rect class="cls-30" x="347.92" y="455.55" width="16.33" height="1.21" transform="translate(-191.66 269.48) rotate(-33.2)"/><path class="cls-31" d="M364.7,456.32a3.41,3.41,0,0,1-.36,1.08s-.44.53-.74.93a3.34,3.34,0,0,0-.21.32,6.66,6.66,0,0,1-1.13,1.75c-.65.66-3.18,2.76-3.18,2.76l-2.18-1.84-2.25-1s1.26-5.49,1.8-6.17a1.46,1.46,0,0,1,.16-.19,8,8,0,0,1,1.41-1c.11-.09,1.27-.93,1.69-.82a1.39,1.39,0,0,1,1,.87,3.32,3.32,0,0,1,1.54,1,2.05,2.05,0,0,1,1.34,1.25S364.65,455.67,364.7,456.32Z"/><path class="cls-32" d="M285.88,623.78s-.55,3.78-.62,4.35-6.05-.34-6.05-.34l-.48-4.49S285.13,623.25,285.88,623.78Z"/><path class="cls-33" d="M285.33,627.65a16,16,0,0,0,3.73,3.26c1.83,1,4.71,1.39,5.8,2.41.78.75,2.85,3.94-4.77,3.87s-11.29.45-12.1-.77,1.18-9,1.18-9S281,628,285.33,627.65Z"/><path class="cls-32" d="M328.75,623.78s-.55,3.78-.61,4.35-6.06-.34-6.06-.34l-.48-4.49S328,623.25,328.75,623.78Z"/><path class="cls-33" d="M328.2,627.65a16.25,16.25,0,0,0,3.73,3.26c1.83,1,8.58,1.81,9.66,2.84.79.74,2.09,3.72-8.63,3.44-7.61-.2-11.28.45-12.1-.77s1.18-9,1.18-9S323.74,628.08,328.2,627.65Z"/><path class="cls-33" d="M290.83,526.76s-5.62,8.93-5.2,17-2,16.89-2.89,25.32c-.94,9.41-4.79,31.67-4.93,36.7s.6,21.09.6,21.09l7.71.17s6.48-38.91,8.16-42.88,10-32.29,10.27-35.46S290.83,526.76,290.83,526.76Z"/><path class="cls-33" d="M320.43,528s4.23,22.13,4.79,27.07.94,23.92,1.21,27,2.62,40.32,3.36,45h-9.86s-7.57-27.13-7.57-40-5.85-27.92-9.62-36.39S290.32,542,288,526.3C288,526.3,317.29,523,320.43,528Z"/><path class="cls-27" d="M300.21,451.66s7.55-2.82,11,2.93,3.14,17.24-.66,18.66-9.52.67-11.47-2.92-3.7-8.8-3.62-12.27S298.23,452.66,300.21,451.66Z"/><path class="cls-27" d="M309.76,473.51a6.62,6.62,0,0,0,.2,3c.52,1-9.77,1-9.77,1a68.38,68.38,0,0,0-2.42-10.07C296.18,462.9,309.76,473.51,309.76,473.51Z"/><path class="cls-34" d="M297.77,467.51s.71,1.17,3.61.72,6.44-4.32,7.65-4.74,1.22-1.14,1.22-1.14l.76,1.11,1.29.08s-1.18-3.45.59-4.86-1.83-11.17-11.14-7.92c0,0-7.14,2-6.88,6S296.17,465.48,297.77,467.51Z"/><path class="cls-35" d="M310.58,476.43s0-1.92-.91-2.1-9.59-1-10.66-.61V476S301.07,477.22,310.58,476.43Z"/><path class="cls-27" d="M310.06,460.87c-.16-.68-1.9-2.62-2.56-.54s1,4.89,1.93,4.65S310.47,462.6,310.06,460.87Z"/><path class="cls-29" d="M325,479.33c-6-.79-14.43-2.9-14.43-2.9L299,476s-10.61,2.33-14.79,4.22c-.4.18-.4,9.47-1.49,11.9l3.47,7.32s2,14.48,2.42,20.92c.19,2.95-4.13,27.72-4.13,27.72A80.12,80.12,0,0,0,297,550.27c7.89.87,27.61-.31,27.73-1.24s-3.82-34.71-4-36.46c-.27-2.69.92-17,.92-17,1.83-1.41,17.82-8.84,22.19-12.71,1.17-1,6.1-5.84,7.5-7.49,5-5.87,9-10.91,9.52-12,.57-.62-5.51-3.9-6.05-4.08s-7.06,8.58-9.64,11.37a71.53,71.53,0,0,1-5.94,4.73S328.75,479.55,325,479.33Z"/><path class="cls-34" d="M298.06,452.34s-9.62.75-.29,15.17Z"/><polygon class="cls-36" points="363.24 452.19 364.03 450.99 362.58 451.18 363.24 452.19"/><path class="cls-37" d="M170.59,521.41s4.68.28,6,1,10.16-2.06,10.32-2.71a1.41,1.41,0,0,0,0-1H169.54Z"/><path class="cls-37" d="M149.58,500.76s-1.49,11.74,0,13.27c5.7,5.88,26.85,5.41,26.85,5.41v2.39s-32.14,4-35.13-2.22c-3.58-7.49-2.19-19.71-2.19-19.71Z"/><polygon class="cls-38" points="138.97 624.42 140.88 622.24 137.44 618.64 134.53 620.68 138.97 624.42"/><path class="cls-39" d="M134.52,620.68s3.94,3,5,3.08,1.61.61,1.48,2.27,1.6,8.69,2.81,8.8,5.3.14,6,2.84-13,2.14-13.86-.08-6.77-13-6.07-13.83S132.51,621,134.52,620.68Z"/><path class="cls-40" d="M159.76,536.69s25.7,44.76,15.27,54c-4.09,3.64-8,6.92-13.69,11.78a142.14,142.14,0,0,0-11,10.06l-.18.19c-3.07,3.2-5.6,5.91-6.38,6.74l-.08.08-.08.09-2.86,2.73-4.2-3.69a124,124,0,0,0,7.44-11.63c3.76-7.1,10.09-15.44,13-17.77,5-4,6.39-4.76,6.39-8.57,0-4.09-23.56-26.92-23.56-26.92s-3.41-14.29,4.75-18C152.6,532.12,159.76,536.69,159.76,536.69Z"/><path class="cls-41" d="M140.17,631.35a12.54,12.54,0,0,1,.18-3.38c.35-1.32-5.32-.56-5.32-.56s-.73,5.51-.52,6.77S140.17,631.35,140.17,631.35Z"/><path class="cls-38" d="M141.23,628l-7.65,1.38s-.55-9.76-.45-17.23c.11-8-.3-14.34,2.16-20.74,2.29-6,1.77-8.25,2-12.33s-2-25.11-2-25.11-2.61-9.41,3.43-16.05c5.89-6.47,21.12,0,21.12,0s-3.17,28.71-10.79,46.47c-2.15,5-1,8.09-3.74,15.85C145.32,600.2,141.14,617.14,141.23,628Z"/><path class="cls-42" d="M147.88,481.1a9,9,0,0,0-.91,2.46,22,22,0,0,0-.42,2.62,31.69,31.69,0,0,0-.15,3.34s-10.2-2.22-8.52-4.6.69-9.58.69-9.58S149.2,478.87,147.88,481.1Z"/><path class="cls-27" d="M153.62,461.46s2.6,2.26,1.44,8.79c0,0,.58,5.21,1.37,6.11s-2.14,1.24-2.44,1.9-.9,3.71-2.94,5.55-12.18-3.71-12.67-6.85-7.51-16.59,3.6-17.2S153.62,461.46,153.62,461.46Z"/><path class="cls-43" d="M160.6,509.64c-.2.65.57,10.7.5,11.57-.39,4.75.84,12,1.32,14.56l.18.92c-11,5.38-26.32,4.91-26.32,4.91.06-.41,2.19-5.59,2.25-6,.91-6.47,2.24-9.42,1.88-13.79h0a27.36,27.36,0,0,0-2.12-8.2c-3.74-9.19-3.54-15.3-2.93-20.35a24.66,24.66,0,0,1,2.13-7.92l9.3,1c2,2.19,3.73,3.36,9.34,8.34C162.1,500,163.14,501.6,160.6,509.64Z"/><path class="cls-40" d="M134.17,632.75s5.38-1.53,5.54-1.68.2-.48.94-.18,1,1.42,1.78,1.78,5.16,1.65,7.6,2.85c.88.43,4.59,1.85,5.13,3s.37,3-6,2.55-13.38.48-14.78-.22S133.81,634.6,134.17,632.75Z"/><path class="cls-44" d="M155.34,467.91s1.25-13.56-11.9-11.14-6.37,17.24-4.6,22.07c0,0-.22-7.5,6.11-7.75S152.59,469.38,155.34,467.91Z"/><path class="cls-42" d="M143.93,469.19c-.8-1.38-3.51-.64-3.2,1.45s2.49,4.19,3.21,3.18A4.07,4.07,0,0,0,143.93,469.19Z"/><path class="cls-42" d="M144.23,495.83s-1.09,11.61.4,13.15c5.71,5.88,28.22,6,28.22,6l1.07,3.38s-33.45,2.27-36.44-4c-3.59-7.49-2.2-19.7-2.2-19.7Z"/><path class="cls-44" d="M139.27,460.11s-5.06-4.86-8.66.64,4.28,13.18,7.47,8.62A10.14,10.14,0,0,0,139.27,460.11Z"/><path class="cls-45" d="M147,483.56a22,22,0,0,0-.42,2.62c-3.38-1.55-5.92-6.26-5.92-6.26a26.24,26.24,0,0,0,6.34,3.63Z"/><rect class="cls-46" x="163.46" y="518.35" width="31.91" height="1.78"/><rect class="cls-46" x="185.81" y="504.59" width="31.91" height="1.78" transform="translate(-340.42 457.9) rotate(-63.23)"/><path class="cls-42" d="M168.15,515s4.68-.36,6-1.29,10.16,2.62,10.33,3.44a2.41,2.41,0,0,1,0,1.23H167.09Z"/><polygon class="cls-43" points="137.49 485.36 138.14 483.58 147.07 485.36 147.07 486.94 137.49 485.36"/><path class="cls-42" d="M144.21,496s1-6.73-3.73-7.32-5.2,6-5.2,6Z"/><path class="cls-47" d="M449.57,622.91s.54,3.81.61,4.38,6.05-.34,6.05-.34l.49-4.53S450.32,622.37,449.57,622.91Z"/><path class="cls-48" d="M450.12,626.81a16.32,16.32,0,0,1-3.73,3.29c-1.83,1-4.72,1.4-5.8,2.44-.78.75-2.85,4,4.76,3.9s11.29.46,12.11-.78-1.18-9.11-1.18-9.11S454.47,627.2,450.12,626.81Z"/><path class="cls-47" d="M406.7,622.91s.55,3.81.62,4.38,6.05-.34,6.05-.34l.48-4.53S407.45,622.37,406.7,622.91Z"/><path class="cls-48" d="M407.25,626.81a16.08,16.08,0,0,1-3.73,3.29c-1.83,1-8.58,1.83-9.66,2.86-.78.75-2.08,3.76,8.63,3.48,7.61-.2,11.28.46,12.1-.78s-1.18-9.11-1.18-9.11S411.71,627.25,407.25,626.81Z"/><path class="cls-49" d="M447.44,524.51s3.19,9.46,2.77,17.61,1.65,17.07,2.49,25.58c.94,9.49,4.79,32,4.93,37S457,626,457,626l-7.72.18s-6.47-39.29-8.15-43.29-10-32.59-10.28-35.8S447.44,524.51,447.44,524.51Z"/><path class="cls-48" d="M415,526.19s-4.23,22.34-4.79,27.33-.93,24.14-1.21,27.26-1.87,40.8-3.36,45.43h9.86s7.57-27.39,7.57-40.35,5.85-28.18,9.62-36.73,12.41-8.76,14.73-24.62C447.44,524.51,418.17,521.16,415,526.19Z"/><path class="cls-27" d="M435.06,449.85s-7.77-2.91-11.35,3-3.24,17.76.68,19.22,9.8.69,11.8-3,3.82-9.05,3.73-12.63S437.1,450.88,435.06,449.85Z"/><path class="cls-27" d="M425.69,471.71a6.53,6.53,0,0,1-.21,3c-.51,1,9.78,1,9.78,1a68.38,68.38,0,0,1,2.42-10.07C439.26,461.1,425.69,471.71,425.69,471.71Z"/><path class="cls-50" d="M437.68,465.71s-.71,1.17-3.61.72-6.44-4.31-7.65-4.74-1.22-1.13-1.22-1.13l-.76,1.11-1.29.08s1.18-3.45-.59-4.86,1.83-11.17,11.13-7.92c0,0,7.15,2,6.89,6S439.28,463.69,437.68,465.71Z"/><path class="cls-35" d="M424.87,474.63s0-1.92.91-2.1,9.59-1,10.66-.6v2.23S434.38,475.43,424.87,474.63Z"/><path class="cls-27" d="M425.39,459.08c.16-.68,1.9-2.63,2.56-.54s-1,4.89-1.93,4.65S425,460.81,425.39,459.08Z"/><path class="cls-43" d="M424.87,474.63s-4.78,1.72-10.32,4.08a11.63,11.63,0,0,0-7.06,9.41c-.37,3.74-4.34,23.56-5.09,25.24s-9.56,28.62-9.88,29.18,7.2,3.68,7.7,3.43,8.54-24.58,9.35-26.38c0,0,4.63-14.59,4.75-16.76,0,0,.13,6.2.38,7.94s-4.11,35.52-4,36.45,19.84,2.11,27.73,1.24a97.17,97.17,0,0,0,14.26-2.68s-6.21-26.66-6-29.62c.41-6.44,2.57-18.57,2.57-18.57l6.43,12.13-8.24,21.19,1.89,6.44s15.3-23.12,15.8-25.24-.75-4.8-1.56-6.54-6.11-15-7.35-16.84-3.34-9.33-8.42-11.41a78.74,78.74,0,0,0-11.36-3.16Z"/><rect class="cls-51" x="380.94" y="524.58" width="37.22" height="25.96" transform="translate(146.04 -82.4) rotate(14.38)"/><path class="cls-52" d="M389.39,548s-1,1.67-1.41,2.14.92.78,1.48.3S389.39,548,389.39,548Z"/><path class="cls-53" d="M396.89,553.73a3.91,3.91,0,0,0,.74-1s.18-.76.35-1.29a3.75,3.75,0,0,1,.14-.41,7.44,7.44,0,0,0,.82-2.19c.16-1,.61-5.64.61-5.64l-2.79-.7-2.25-.48s-4.84,4.84-5.1,5.78a1.31,1.31,0,0,0-.06.27,9,9,0,0,0,.07,1.92c0,.16,0,1.77.39,2.07a1.55,1.55,0,0,0,1.48.35,3.7,3.7,0,0,0,1.93.73,2.34,2.34,0,0,0,2,.38S396.28,554.12,396.89,553.73Z"/><path class="cls-43" d="M407.79,524.56s-6.4,19.38-7.57,21.41a21.21,21.21,0,0,1-7.7-3.43l7-20.91Z"/><path class="cls-54" d="M544.54,547.69s-.26-4.46-1.44-5.15-.5.69-.5.69.67,3.24.81,4.55A7.08,7.08,0,0,0,544.54,547.69Z"/><path class="cls-55" d="M513.1,453.85s11.09-.92,10.79,10.75-2.15,13.43,0,21.67-10.82-4.68-10.82-4.68Z"/><path class="cls-42" d="M503.76,485.39s-15.71,9.81-17,8.76c-1.86-1.46-6.91-13.9-6.91-13.9l-4,1.88s4.72,21.52,11.08,19.93,20.94-10.6,20.94-10.6Z"/><path class="cls-42" d="M525.19,526s4.08,5.21,5.53,8.65,3.84,11,3.52,16.85-2.24,16.82-1.68,19.3,1.12,7.62,1.72,9.38,3,6.89,3.25,12.18-3.37,28.52-3.21,30.68-4.09.88-4.09.88-1.44-21-2.24-24.59-1.76-15.87-2.48-16.75-2.69-10-2.39-11.46-7.87-23.07-8.35-27.4S502.24,526,502.24,526A37.43,37.43,0,0,1,525.19,526Z"/><path class="cls-42" d="M505.69,526a24.63,24.63,0,0,1-.45,3c-.24.8-5.77,21.23-6.33,29.09a154.32,154.32,0,0,1-2.24,16.18,34.36,34.36,0,0,0,.72,8.73c.48,1.44-2.41,35.49-2.65,36.3s1.93,1,3.45.8,9.21-25,8.73-29.17-1-13,.4-16.66S520.94,544.5,521,542.9,526.33,513.7,505.69,526Z"/><path class="cls-42" d="M530.31,621.35a16.7,16.7,0,0,1-.83,3.52c-.43.75-1.61,4.6-2.15,5.31s-1.72,6.11,0,6.76,5.78,1.72,7.15-.43a8.94,8.94,0,0,0,1.33-6c-.22-1.65-1.86-9.23-1.84-10S530.31,621.35,530.31,621.35Z"/><path class="cls-43" d="M528,628.69s-.19,4.19,3,4.19,4.57-3.81,4.57-3.81,1.07,1.87,0,5.86-5.57,3.16-6.58,3S523.21,636.54,528,628.69Z"/><path class="cls-43" d="M495.08,617.59s-2.23,4-3.56,4.8c-1.65,1-4.86,4.25-6,4.4s-5.15.87-4.37,3.14c.63,1.86,10.25,1.6,11.33.66s4.32-4.29,5.63-4.21.82,4.84.82,4.84h1.43s.49-4.64.55-5.43c.18-2.36-1.5-4.1-1.58-5.44s-.15-2.35-.15-2.35Z"/><path class="cls-42" d="M485.86,626.68s3.17,1.1,5.61-.3,7.11-3.53,8.77-3.55c0,0-.9-2.76-.92-3.07s-.12-1.76-.12-1.76l-4.09-.66a35.42,35.42,0,0,1-3.82,4.82A64.58,64.58,0,0,0,485.86,626.68Z"/><path class="cls-43" d="M502.17,525.62s-1.14,4.74-1.56,6.13-3.12,22.82-3.78,36.23c0,0,16.16,6.13,38.39,5.11,0,0,.54-24.64-1.5-31.61S528,528,525.19,526C522.7,524.19,502.17,525.62,502.17,525.62Z"/><path class="cls-42" d="M539.07,537.65a33.56,33.56,0,0,1-.93,3.93c-.61,1.93-1.17,2.54-.92,3.65.18.83,1.12,1.46,1.36,1.19s.36-3.51,1.7-3.5-.4,4,.4,3.73,3.88-2,3.68-3.62-1.42-2.82-1.34-5.26a5.28,5.28,0,0,0-.62-3.14Z"/><path class="cls-27" d="M474.78,481.18s1.88,2.43,3,2.69,2.41-2.49,2.41-2.49l-.68-2.48Z"/><path class="cls-27" d="M479.42,480.36s.89-2.81,1-3.24a5.36,5.36,0,0,0-1.12-2.92,25.53,25.53,0,0,0-2.09-2.82c-.17-.17-.27-.37-.86-.11a2.5,2.5,0,0,0-.93.81,1.5,1.5,0,0,0-1.26.69,1.3,1.3,0,0,0-1.12.9s-.8,0-1,.7a9.41,9.41,0,0,1,.4,1.68,21.09,21.09,0,0,0,2.29,5.13S476.71,482.84,479.42,480.36Z"/><path class="cls-56" d="M477.36,476.71a7.05,7.05,0,0,0-1.08,1.58c-.12.45-2.94-1.23-2.94-1.23S476,475.57,477.36,476.71Z"/><path class="cls-28" d="M477.38,471.67s1.57,3.31,1,3.6a1,1,0,0,1-.89.07l-.08,1.66a1,1,0,0,1-1.64,0s-.53,1.07-1.34-.06c0,0-.66.55-1.13.1a12.36,12.36,0,0,1-1.25-2.69s.05-.55,1-.7a1.28,1.28,0,0,1,1.12-.9,1.94,1.94,0,0,1,1.46-.91,1.45,1.45,0,0,1,1.59-.48A1.59,1.59,0,0,1,477.38,471.67Z"/><path class="cls-27" d="M480.41,477a12.71,12.71,0,0,0-3.33-2.12c-.33-.1-.66-.14-.88.12s-.11.91.67,1.68a9.33,9.33,0,0,1,1.45,2.11S479.36,479.34,480.41,477Z"/><path class="cls-27" d="M475.64,471.86a30.63,30.63,0,0,1,1.92,3.85c0,.4,1.26-.29,1.26-.63a30.09,30.09,0,0,0-1.59-3.7A1,1,0,0,0,475.64,471.86Z"/><path class="cls-27" d="M477.63,472.05s-3.08-5.76-3.54-5.55c-.66.31-.48,1.9,2.12,6.2S477.63,472.05,477.63,472.05Z"/><path class="cls-29" d="M502.92,497.31l-6.35-8.42s11.35-8.79,14.85-3.2C511.42,485.69,511.67,494.9,502.92,497.31Z"/><path class="cls-29" d="M499.11,497c.18,2.83,1.62,5.17,1.86,6.19s0,3.37.3,5.71,1.2,13.52.9,16.71,21.86,1.74,23.55.78c0,0-3.74-6.67-3.84-9.44,0-1-.6-3.9,1-6.06.83-1.15,2.36-4.78,3.89-7.44h0c.59-1,1.21-2.06,1.64-2.82h0a11.07,11.07,0,0,0,.88-2.18s1-12.26-1.72-13.64a13.7,13.7,0,0,0-6.79-1.75,19.34,19.34,0,0,1-4.39-.66l-6.18.66a35.67,35.67,0,0,1-5.53,1.51c-1.57.12-3.55,3.48-3.37,5.64S498.93,494.19,499.11,497Z"/><path class="cls-54" d="M540.15,542.79s-1.79.45-1.69,6.51l2-.34a20.63,20.63,0,0,1,.57-5.17S541,542.61,540.15,542.79Z"/><polygon class="cls-54" points="532.72 550.66 548.5 546.19 548.45 565.63 532.75 575.04 532.72 550.66"/><polygon class="cls-54" points="532.75 575.04 534.72 575.4 550 565.9 549.81 546.28 548.5 546.19 532.75 575.04"/><path class="cls-27" d="M524.9,483.69s4.91,0,7.14,4.31,2.46,8.89,3,10.52,2,11.16,2.5,12.55,3.75,10.76,4.53,16.05a106.84,106.84,0,0,1,.95,10.65l-3.95-.12s-3.91-14.39-5.26-17.81c-1.15-2.93-1.59-8-2.25-9.85s-4.75-14.48-5.59-15.38S520.71,484.49,524.9,483.69Z"/><path class="cls-29" d="M526.51,501.22l10-3.15s-3.08-14.77-11.63-14.38C518,484,526.51,501.22,526.51,501.22Z"/><path class="cls-27" d="M514.18,455a9.42,9.42,0,0,0-10.82,7.46,22.82,22.82,0,0,0,.29,3.61c.31,1.61-1.61,6-1.27,6.29a9.75,9.75,0,0,0,1.8.73s1,5.19,2.8,5.34a14.65,14.65,0,0,0,12.41-6.31C523.23,466.28,525.29,456.85,514.18,455Z"/><path class="cls-27" d="M509.62,476.45s.13.73.26,1.8c.06.54.13,1.18.17,1.85a12.32,12.32,0,0,1-.59,5.38s3.45,2.14,7.14-3c0,0-.36-6.41,1.76-9.79S509.62,476.45,509.62,476.45Z"/><path class="cls-55" d="M503.36,462.49s4.14,3.58,8.52,4.7,6.71,6.06,6.71,6.06,7.75-7.74,3.07-15.25S503.36,453.84,503.36,462.49Z"/><path class="cls-45" d="M509.88,478.25c.06.54.13,1.18.17,1.85a19.41,19.41,0,0,0,6-4.45A22,22,0,0,1,509.88,478.25Z"/><path class="cls-55" d="M512.69,467.45s4.48,12.06,3.94,15a15.77,15.77,0,0,1,6.61.89S521.19,461.78,512.69,467.45Z"/><path class="cls-27" d="M518.13,482.8s-1.48,9.05-6.94,8-1.32-7.65-1.32-7.65S512,481.26,518.13,482.8Z"/></svg>