<svg id="Слой_1" data-name="Слой 1" xmlns="http://www.w3.org/2000/svg" viewBox="0 0 600 800"><defs><style>.cls-1{fill:#ececec;}.cls-2{fill:#e7e7e7;}.cls-3{fill:#f5f5f5;}.cls-4{fill:#fff;}.cls-5{fill:#f0f0f0;}.cls-6{fill:#fafafa;}.cls-7{fill:#e1e1e1;}.cls-8{fill:#ffc3bd;}.cls-9{opacity:0.2;}.cls-10{fill:#007cff;}.cls-11,.cls-13{opacity:0.4;}.cls-12{fill:#1a2e35;}.cls-14{fill:#ff847f;}.cls-15{opacity:0.3;}.cls-16{fill:#eb4747;}.cls-17{fill:#9b3232;}</style></defs><rect class="cls-1" x="-1.28" y="586.73" width="602.56" height="0.3"/><rect class="cls-1" x="500.99" y="606.13" width="39.92" height="0.3"/><rect class="cls-1" x="387.4" y="609.4" width="10.48" height="0.3"/><rect class="cls-1" x="476.65" y="594.94" width="23.13" height="0.3"/><rect class="cls-1" x="61.94" y="596.96" width="52.05" height="0.3"/><rect class="cls-1" x="124.72" y="596.96" width="7.63" height="0.3"/><rect class="cls-1" x="157.16" y="602.05" width="112.89" height="0.3"/><path class="cls-1" d="M284.35,533H51.64a6.89,6.89,0,0,1-6.88-6.88V199a6.89,6.89,0,0,1,6.88-6.88H284.35a6.89,6.89,0,0,1,6.88,6.88V526.11A6.89,6.89,0,0,1,284.35,533ZM51.64,192.42A6.59,6.59,0,0,0,45.06,199V526.11a6.58,6.58,0,0,0,6.58,6.57H284.35a6.58,6.58,0,0,0,6.58-6.57V199a6.59,6.59,0,0,0-6.58-6.58Z"/><path class="cls-1" d="M545,533H312.31a6.89,6.89,0,0,1-6.88-6.88V199a6.89,6.89,0,0,1,6.88-6.88H545a6.89,6.89,0,0,1,6.88,6.88V526.11A6.89,6.89,0,0,1,545,533ZM312.31,192.42a6.59,6.59,0,0,0-6.58,6.58V526.11a6.58,6.58,0,0,0,6.58,6.57H545a6.58,6.58,0,0,0,6.58-6.57V199a6.59,6.59,0,0,0-6.58-6.58Z"/><rect class="cls-2" x="373.28" y="274.75" width="148.79" height="99.47" transform="translate(772.16 -123.19) rotate(90)"/><rect class="cls-3" x="370.26" y="274.75" width="148.79" height="99.47" transform="translate(769.14 -120.17) rotate(90)"/><rect class="cls-4" x="407.71" y="262.87" width="73.9" height="123.22"/><rect class="cls-2" x="346.93" y="323.64" width="123.22" height="1.68" transform="translate(733.03 -84.06) rotate(90)"/><rect class="cls-2" x="257.6" y="450.69" width="42.18" height="136.04" transform="translate(557.4 1037.42) rotate(180)"/><polygon class="cls-5" points="265.62 586.74 257.61 586.74 257.61 567.43 274.02 567.43 265.62 586.74"/><rect class="cls-2" x="483" y="450.69" width="42.18" height="136.04" transform="translate(1008.19 1037.4) rotate(180)"/><rect class="cls-5" x="257.6" y="450.69" width="232.39" height="133.21" transform="matrix(-1, 0, 0, -1, 747.61, 1034.58)"/><rect class="cls-2" x="319.09" y="403.52" width="30.62" height="141.16" transform="translate(-139.69 808.52) rotate(-90)"/><rect class="cls-2" x="431.76" y="437.39" width="30.62" height="73.42" transform="translate(-27.02 921.19) rotate(-90)"/><path class="cls-5" d="M439.8,462.5h14.53c6.31,0,12.34-1.51,16.68-4.17H423.12C427.46,461,433.5,462.5,439.8,462.5Z"/><path class="cls-5" d="M292.52,462.5h82.27c6.31,0,12.34-1.51,16.68-4.17H275.84C280.18,461,286.21,462.5,292.52,462.5Z"/><rect class="cls-2" x="319.09" y="442.91" width="30.62" height="141.16" transform="translate(-179.08 847.91) rotate(-90)"/><rect class="cls-2" x="431.76" y="476.79" width="30.62" height="73.42" transform="translate(-66.41 960.58) rotate(-90)"/><path class="cls-5" d="M439.81,501.89h14.52c6.31,0,12.34-1.51,16.68-4.17H423.13C427.47,500.38,433.5,501.89,439.81,501.89Z"/><path class="cls-5" d="M292.52,501.89h82.27c6.31,0,12.34-1.51,16.68-4.17H275.84C280.18,500.38,286.21,501.89,292.52,501.89Z"/><rect class="cls-2" x="319.09" y="482.3" width="30.62" height="141.16" transform="translate(-218.47 887.31) rotate(-90)"/><rect class="cls-2" x="431.76" y="516.18" width="30.62" height="73.42" transform="translate(-105.8 999.97) rotate(-90)"/><path class="cls-5" d="M439.81,541.28h14.52c6.31,0,12.34-1.51,16.68-4.17H423.13C427.47,539.77,433.5,541.28,439.81,541.28Z"/><path class="cls-5" d="M292.52,541.28H374.8c6.3,0,12.34-1.51,16.68-4.17H275.84C280.18,539.77,286.21,541.28,292.52,541.28Z"/><polygon class="cls-5" points="481.98 586.73 489.99 586.73 489.99 567.43 473.58 567.43 481.98 586.73"/><path class="cls-6" d="M503.94,426.47s-1.23,13.82-48.14,13.82-48.13-13.82-48.13-13.82Z"/><path class="cls-1" d="M503.94,436.86s-1.23,13.83-48.14,13.83-48.13-13.82-48.13-13.82Z"/><polygon class="cls-2" points="175.38 586.73 223.61 586.73 209.32 462.69 175.38 462.69 175.38 586.73"/><polygon class="cls-7" points="93.98 586.73 201.24 586.73 212.56 441.55 105.3 441.55 93.98 586.73"/><polygon class="cls-3" points="86.26 586.73 197.88 586.73 209.2 441.55 97.58 441.55 86.26 586.73"/><polygon class="cls-4" points="187.33 575.29 196.87 452.99 108.13 452.99 98.6 575.29 187.33 575.29"/><rect class="cls-1" x="73.71" y="217.11" width="273.31" height="199.2"/><rect class="cls-6" x="83.06" y="227.65" width="254.6" height="178.12"/><polygon class="cls-4" points="137.85 405.77 111.13 405.77 136.29 227.65 163.02 227.65 137.85 405.77"/><polygon class="cls-4" points="203.88 405.77 177.16 405.77 202.32 227.65 229.04 227.65 203.88 405.77"/><polygon class="cls-4" points="289 405.77 275.63 405.77 300.8 227.65 314.16 227.65 289 405.77"/><polygon class="cls-4" points="227.38 405.77 214.02 405.77 239.18 227.65 252.54 227.65 227.38 405.77"/><rect class="cls-1" x="155.82" y="227.65" width="12.59" height="178.12"/><rect class="cls-7" x="168.41" y="227.65" width="2.81" height="178.12" transform="translate(339.64 633.42) rotate(180)"/><rect class="cls-7" x="347.02" y="217.11" width="2.01" height="199.2" transform="translate(696.06 633.42) rotate(180)"/><ellipse id="_Path_" data-name="&lt;Path&gt;" class="cls-3" cx="300" cy="627.51" rx="233.66" ry="13.65"/><polygon class="cls-8" points="356.14 592.65 371.41 583.83 380.74 602.5 367.99 609.89 356.14 592.65"/><polygon class="cls-9" points="356.14 592.65 371.42 583.83 376.64 594.29 362.78 602.31 356.14 592.65"/><path class="cls-10" d="M361.63,532.44c10.82-25.07,28.64-54.19,21.34-81.08l-48.63-7.69s-10.06,60.09-8.07,84.73c2.08,25.63,32.32,71.11,32.32,71.11L376,589.29S368.44,550.41,361.63,532.44Z"/><g class="cls-11"><path d="M361.63,532.44c10.82-25.07,28.64-54.19,21.34-81.08l-48.63-7.69s-10.06,60.09-8.07,84.73c2.08,25.63,32.32,71.11,32.32,71.11L376,589.29S368.44,550.41,361.63,532.44Z"/></g><polygon class="cls-10" points="377.77 589.08 357.87 600.83 351.53 592.6 374.98 580.18 377.77 589.08"/><path class="cls-9" d="M365.19,524.52c5.85-12.69,12.6-26.2,16.42-39.79C370.12,486.68,360.39,496,365.19,524.52Z"/><path class="cls-12" d="M380.24,598.07a.73.73,0,0,0-1.17.07c-2.51,4.3-9.73,8.43-12.52,9.91a2.81,2.81,0,0,0-1.36,1.64c-1.36,4.2-6.76,10.46-6.76,10.46a13.9,13.9,0,0,0,1,2.8,2,2,0,0,0,3.12.71l22.2-18a1.72,1.72,0,0,0,.11-2.57A48.69,48.69,0,0,1,380.24,598.07Z"/><polygon class="cls-8" points="384.83 601.16 402.46 601.33 400.86 622.15 386.12 622.03 384.83 601.16"/><path class="cls-12" d="M402.4,619a.66.66,0,0,0-.88-.69c-4.8,1.76-12.91.42-16-.19a2.93,2.93,0,0,0-2.12.42c-3.91,2.4-10.82,3.86-10.82,3.86a14.56,14.56,0,0,0-1.19,2.64,2,2,0,0,0,1.93,2.67l27.19,0a1.71,1.71,0,0,0,1.71-1.78A50.29,50.29,0,0,1,402.4,619Z"/><polygon class="cls-9" points="384.83 601.17 402.47 601.34 401.57 613 385.55 612.86 384.83 601.17"/><path class="cls-10" d="M413.63,531c5.49-26.19,15.39-60.24,8.42-73.75l-56.94-8.82s7.08,54.18,8.95,79.42c1.94,26.24,9.62,80.46,9.62,80.46l19.08,0S416.05,562.25,413.63,531Z"/><path class="cls-13" d="M413.63,531c5.49-26.19,15.39-60.24,8.42-73.75l-56.94-8.82s7.08,54.18,8.95,79.42c1.94,26.24,9.62,80.46,9.62,80.46l19.08,0S416.05,562.25,413.63,531Z"/><polygon class="cls-10" points="404.85 609.09 381.88 609.09 381.53 599.52 406.82 599.93 404.85 609.09"/><path class="cls-8" d="M380.15,365.73l-1.46,1.17L377.34,368c-.9.69-1.81,1.34-2.71,2-1.82,1.32-3.68,2.54-5.56,3.76a127.06,127.06,0,0,1-11.74,6.71,97.38,97.38,0,0,1-12.89,5.45,64,64,0,0,1-14.77,3.28l-1,.09a9.91,9.91,0,0,1-7-2A27.31,27.31,0,0,1,313.67,377a31.4,31.4,0,0,1-1.93-5.13,45.19,45.19,0,0,1-1.16-4.95c-.26-1.63-.45-3.23-.58-4.81s-.13-3.15-.13-4.7.12-3.08.25-4.61l.28-2.29.4-2.41a6.27,6.27,0,0,1,11.94-1.44l.5,1.18c.19.45.41,1.13.62,1.71l.63,1.8c.41,1.21.86,2.39,1.31,3.55a63.38,63.38,0,0,0,2.88,6.56,26.3,26.3,0,0,0,3.24,5.07,5.76,5.76,0,0,0,2.69,2.06l-8-1.91a52.81,52.81,0,0,0,9.24-3.2c1.6-.69,3.22-1.5,4.83-2.34s3.25-1.72,4.87-2.65c3.23-1.89,6.48-3.88,9.67-6,1.6-1,3.18-2.15,4.76-3.22l2.33-1.64,2.16-1.54.49-.35a12.55,12.55,0,0,1,15.15,20Z"/><path class="cls-8" d="M322.71,347.57l-6.22,4.06c-7.63,1.67-8.09-8.51-8.09-8.51l-2.19-4.81a3.93,3.93,0,0,1,1.7-4.81l4.33-2.87a4.1,4.1,0,0,1,5.68.72l2.58,3.82a8.12,8.12,0,0,1,1.34,3.73Z"/><path class="cls-12" d="M379.73,340.42c-11.93-.71-36.45,14.67-36.45,14.67-2.82,9,2.1,26,9.28,30.25,0,0,18.26-7.84,26.85-15.46C389.8,360.66,403.87,341.85,379.73,340.42Z"/><path class="cls-12" d="M380.84,340.44a222.15,222.15,0,0,1,48.36,8.27c9.1,2.75,14.76,9.55,10.69,28.43-8.27,38.28-7.59,69.56-14.66,82.69,0,0-82.78,5.11-93.85-14,2.25-47.27,24.91-83.29,35-98.18A16.46,16.46,0,0,1,380.84,340.44Z"/><path class="cls-8" d="M385.53,345.67c2.13-1.53,3.91-.17,5.23-2.77a9.58,9.58,0,0,0-.05-6.45L414.62,328c-1.69,8.05-3,14.41.09,18.19.1,6.21-14.25,11.89-26.37,9.59C377.66,353.71,382.45,347.87,385.53,345.67Z"/><path class="cls-9" d="M390.93,337.19l18.1-1.66c-5.48,6.24-14,8.8-18,6.47A9.62,9.62,0,0,0,390.93,337.19Z"/><path class="cls-12" d="M389.18,314.53c-1-9.26,8.07-21,15.62-16.95S389.18,314.53,389.18,314.53Z"/><path class="cls-8" d="M421,319.82c-4.78,10.55-8.26,17.62-16.27,19.8-15.92,4.32-21.16-4.42-19.62-16.23,1.39-10.62,9-26.1,21.18-26.27A16,16,0,0,1,421,319.82Z"/><path class="cls-12" d="M418.24,328.28c-5.46-.79-9.45-10.65-3.74-15.8s3.74-10.11-.4-11.58-11.68-.4-13.39-4.09,9.75-6.37,16.42-2.12,6.32,1.66,6.32,1.66A1.61,1.61,0,0,1,422.2,299c5.24,3.49,11.05,11.88,5.64,15.32C434.67,318.14,424.1,327.25,418.24,328.28Z"/><path class="cls-12" d="M426.16,313.71c3.64,1.19,5.19-1.56,5.19-1.56S432.49,316.64,426.16,313.71Z"/><path class="cls-12" d="M399.42,324.9a9.75,9.75,0,0,0,1.47-.8.28.28,0,0,0,.06-.4.34.34,0,0,0-.43-.08,8.44,8.44,0,0,1-7.23,1,.3.3,0,0,0-.39.15.29.29,0,0,0,.18.38A8.92,8.92,0,0,0,399.42,324.9Z"/><path class="cls-9" d="M405.83,316.58a5.25,5.25,0,0,1,3.93.73A10.38,10.38,0,0,1,405.83,316.58Z"/><path class="cls-9" d="M405.72,317.53a4.3,4.3,0,0,1,3.28,1.53A8.52,8.52,0,0,1,405.72,317.53Z"/><path class="cls-8" d="M420.34,331.25a10.93,10.93,0,0,1-7.93,2.76c-3.85-.26-3.35-3.3-1.23-6.27,1.91-2.68,5-6.51,8.4-4.78S423,328.85,420.34,331.25Z"/><path class="cls-12" d="M403.6,316.24c-.34.88-1.07,1.41-1.65,1.19s-.77-1.12-.43-2,1.07-1.42,1.65-1.19S403.93,315.36,403.6,316.24Z"/><path class="cls-12" d="M393.41,312.28c-.33.88-1.07,1.41-1.64,1.18s-.77-1.12-.44-2,1.08-1.41,1.65-1.18S393.75,311.4,393.41,312.28Z"/><path class="cls-14" d="M396.59,313.71,394,321.42a5,5,0,0,1-5.11-1.69C391.47,315.76,396.59,313.71,396.59,313.71Z"/><path class="cls-12" d="M408.28,311.11a.52.52,0,0,0,.28,0,.53.53,0,0,0,.43-.64,5.57,5.57,0,0,0-3-4.07.55.55,0,0,0-.72.3.57.57,0,0,0,.31.73h0a4.43,4.43,0,0,1,2.37,3.24A.53.53,0,0,0,408.28,311.11Z"/><path class="cls-12" d="M389.59,308.16a.54.54,0,0,0,.51-.12,4.36,4.36,0,0,1,3.83-1.11.54.54,0,0,0,.67-.39.55.55,0,0,0-.39-.68,5.45,5.45,0,0,0-4.85,1.35.54.54,0,0,0,0,.78A.52.52,0,0,0,389.59,308.16Z"/><path class="cls-10" d="M262,377.75,256.73,392a7.15,7.15,0,0,1-5.67,4.76l-69.5,10.53c-4.48.68-7.13,5.28-5.92,10.28L200,517.81c1.21,5,5.83,8.49,10.32,7.81l165.43-25.06c4.49-.68,7.14-5.28,5.92-10.27L352.33,369.54c-1.22-5-5.84-8.49-10.32-7.82L267.65,373A7.17,7.17,0,0,0,262,377.75Z"/><path class="cls-15" d="M262,377.75,256.73,392a7.15,7.15,0,0,1-5.67,4.76l-69.5,10.53c-4.48.68-7.13,5.28-5.92,10.28L200,517.81c1.21,5,5.83,8.49,10.32,7.81l165.43-25.06c4.49-.68,7.14-5.28,5.92-10.27L352.33,369.54c-1.22-5-5.84-8.49-10.32-7.82L267.65,373A7.17,7.17,0,0,0,262,377.75Z"/><path class="cls-10" d="M226.31,231.24c1.64,0,3.27.09,4.87.25a58.66,58.66,0,0,1,102.2,13,40.31,40.31,0,0,1-6.82,80H226.31a46.64,46.64,0,0,1,0-93.28Z"/><polygon class="cls-10" points="230.63 308.21 230.63 424.49 315.91 424.49 315.91 333.52 290.6 308.21 230.63 308.21"/><polygon class="cls-16" points="230.63 308.21 230.63 424.49 315.91 424.49 315.91 333.52 290.6 308.21 230.63 308.21"/><polygon class="cls-17" points="290.6 333.52 290.6 308.21 315.91 333.52 290.6 333.52"/><rect class="cls-10" x="227.39" y="525.64" width="6.11" height="1.21" transform="translate(-76.01 40.32) rotate(-8.59)"/><rect class="cls-10" x="240.12" y="522.56" width="21.34" height="1.21" transform="translate(-75.36 43.35) rotate(-8.59)"/><path class="cls-10" d="M292.38,389.18l-7.87,13.13a9.26,9.26,0,0,1-6.44,4.43l-69.49,10.53a9.36,9.36,0,0,0-7.76,9.48l4,91.39a7.24,7.24,0,0,0,8.49,7L378.78,500.1a9.35,9.35,0,0,0,7.75-9.48L381.67,380.5a7.24,7.24,0,0,0-8.49-7l-74.36,11.26A9.27,9.27,0,0,0,292.38,389.18Z"/><path class="cls-4" d="M294.8,291.35a1.53,1.53,0,0,1-1.06-.44,1.51,1.51,0,0,1,0-2.12,29,29,0,1,0-40.94,0,1.5,1.5,0,0,1-2.12,2.12,31.95,31.95,0,1,1,45.18,0A1.51,1.51,0,0,1,294.8,291.35Z"/><path class="cls-4" d="M286.08,300.3V267a5.44,5.44,0,0,0-5.44-5.45H265.9a5.45,5.45,0,0,0-5.45,5.45V300.3h-5.54l18.36,15.82,18.36-15.82Z"/><path class="cls-8" d="M434.73,383.15,434,384.8l-.69,1.51c-.47,1-1,2-1.45,2.94-1,1.94-2,3.82-3.09,5.71a130.19,130.19,0,0,1-7.1,11c-1.3,1.78-2.63,3.56-4.05,5.31s-2.92,3.45-4.52,5.13a66.56,66.56,0,0,1-11,9.5l-.83.57a7,7,0,0,1-1.35.71,41,41,0,0,1-13.19,2.49,77.14,77.14,0,0,1-11.39-.46,103.76,103.76,0,0,1-10.72-1.81,90.79,90.79,0,0,1-10.42-2.93,6.34,6.34,0,0,1,1.56-12.29l.26,0,9.77-.83c3.24-.29,6.45-.61,9.56-1,1.55-.21,3.08-.41,4.57-.67s2.93-.57,4.31-.86a24,24,0,0,0,6.47-2.32l-2.19,1.28a57.41,57.41,0,0,0,6.49-7.1c1.06-1.33,2.08-2.76,3.08-4.22s2-2.95,3-4.47c1.92-3.08,3.82-6.24,5.61-9.49.91-1.61,1.77-3.26,2.65-4.88l2.44-4.73.3-.56a12.55,12.55,0,0,1,22.62,10.85Z"/><path class="cls-12" d="M438.57,361.85c5.8,20.82-8.92,41.52-8.92,41.52-7.8,2.24-28.34-5.77-32.71-13.43,0,0,7.17-19.69,15.68-30.16C420.51,350.09,435.17,349.64,438.57,361.85Z"/><path class="cls-8" d="M358.22,412.67l1.15,7.34c-1.6,7.65-11.08,3.88-11.08,3.88l-5.28,0a4,4,0,0,1-3.69-3.52l-.84-5.13a4.11,4.11,0,0,1,3-4.89l4.54-.78a8.19,8.19,0,0,1,4,.3Z"/></svg>