<svg xmlns="http://www.w3.org/2000/svg" viewBox="0 0 1012 327.03"><defs><style>.cls-1{fill:#9fddff;}</style></defs><g id="Layer_2" data-name="Layer 2"><g id="Layer_1-2" data-name="Layer 1"><path class="cls-1" d="M0,214.15,30,0h80q35.33,0,52.46,17.8t12.85,48.85q-3.48,23.57-16.59,39.22t-34.8,22.62l2.67,4.28,32.13,81.38H110.55L84.59,133H56L44.7,214.15ZM130.63,66.65q2.42-16.86-4.42-25t-20.74-8.16H69.87L60.76,99.58H96.1q13.92,0,23-8T130.63,66.65Z"/><path class="cls-1" d="M264.74,47.92q32.92,0,48.85,18.6t10.84,53.67L320.69,147H225.12a70.23,70.23,0,0,0-1.2,18.07,30.93,30.93,0,0,0,3.21,12,15.4,15.4,0,0,0,7.09,6.83A24.9,24.9,0,0,0,244.93,186q10.71,0,17.67-5.89a28.78,28.78,0,0,0,9.37-15h44.7A73,73,0,0,1,305,188.58a79.07,79.07,0,0,1-17.54,17A73.19,73.19,0,0,1,265.54,216a89.24,89.24,0,0,1-24.89,3.48q-16.34,0-28.64-5.35A46.63,46.63,0,0,1,192.06,198q-7.62-10.83-10.3-26.77t.26-37.34Q188.19,91,210.13,69.46T264.74,47.92Zm-5.09,33.46a25.06,25.06,0,0,0-19.81,9q-7.76,9-10.7,27.44l-.27,2.14h50.86l.8-5.35q2.42-16.86-3.61-25T259.65,81.38Z"/><path class="cls-1" d="M346.38,95.83a49.46,49.46,0,0,1,6.43-18.34,51.05,51.05,0,0,1,13.92-15.25A70.55,70.55,0,0,1,388,51.8a95.72,95.72,0,0,1,28.51-3.88q17.39,0,29.57,3.88t19.41,11a35.81,35.81,0,0,1,9.77,16.87,51.11,51.11,0,0,1,.67,21.28l-41.76,3.21q2.15-10.17-2.41-16.46T413.3,81.38q-12.58,0-18.6,4.68T387.87,96.9q-1.06,8,5.09,12a56.82,56.82,0,0,0,15.79,6.69q9.64,2.69,21,5.49A85,85,0,0,1,450.38,129a39.19,39.19,0,0,1,14.72,14.06q5.49,9,3.35,23.95a57.19,57.19,0,0,1-7.1,20.75,56.37,56.37,0,0,1-14.72,16.6,70.14,70.14,0,0,1-22.22,11.11,98.3,98.3,0,0,1-29,4q-17.67,0-30.65-4T343.84,204a36,36,0,0,1-10.44-18.21q-2.55-10.7.4-23.82l39.62-2.68q-3,13.92,4.28,20.35T398.05,186q12.57,0,19.14-5.49t7.62-11.37q.81-6.17-2.54-10a27.7,27.7,0,0,0-9.23-6.69,70.26,70.26,0,0,0-13.52-4.69q-7.63-1.86-15.66-4.28a116.33,116.33,0,0,1-15.53-5.89,44.36,44.36,0,0,1-12.85-8.83,33.79,33.79,0,0,1-8-13.25Q344.78,107.6,346.38,95.83Z"/><path class="cls-1" d="M545.27,53.27l-13.92,99.85q-2.67,18.19,3.21,25.56t19,7.36q11.77,0,19.27-6.69t9.1-18.2h.27l15-107.88h44.71L619.42,214.15H583l-1.88-16.6a54,54,0,0,1-20.74,16.33q-12.45,5.63-28.51,5.62a62.18,62.18,0,0,1-21.95-3.61,34.45,34.45,0,0,1-15.66-11.51q-6-7.9-8.17-20.48t.54-30.78l13.92-99.85Z"/><path class="cls-1" d="M794.75,214.15l15-107.88q1.88-13.11-1.34-19t-11.24-5.88q-7,0-13,6T776,106.27L761,214.15h-44.7l15-107.88q1.88-13.11-1.74-19a11.89,11.89,0,0,0-10.84-5.88q-7,0-13,6.42T697.58,109l-14.72,105.2h-44.7L660.64,53.27h29.71l2.95,16.06A49.74,49.74,0,0,1,712,53.27a50.61,50.61,0,0,1,22-5.09q28.37,0,36.13,22.22,8.57-12,20.22-17.27A57.33,57.33,0,0,1,814,47.92,58.5,58.5,0,0,1,833.83,51a30,30,0,0,1,13.92,10q5.36,7,7.1,18.07t-.4,27.17l-15,107.88Z"/><path class="cls-1" d="M951.08,47.92q32.92,0,48.85,18.6t10.84,53.67L1007,147H911.46a70.23,70.23,0,0,0-1.2,18.07,30.93,30.93,0,0,0,3.21,12,15.35,15.35,0,0,0,7.09,6.83A24.87,24.87,0,0,0,931.27,186q10.69,0,17.67-5.89a28.76,28.76,0,0,0,9.36-15H1003a72.82,72.82,0,0,1-11.65,23.42,78.81,78.81,0,0,1-17.53,17,73.19,73.19,0,0,1-22,10.44A89.24,89.24,0,0,1,927,219.5q-16.34,0-28.65-5.35A46.66,46.66,0,0,1,878.4,198q-7.64-10.83-10.31-26.77t.27-37.34Q874.53,91,896.47,69.46T951.08,47.92ZM946,81.38a25.06,25.06,0,0,0-19.81,9q-7.77,9-10.71,27.44l-.26,2.14h50.86l.8-5.35q2.42-16.86-3.61-25T946,81.38Z"/><path d="M270.8,325V248.1h14.39a109.37,109.37,0,0,1,16.36.87,29.49,29.49,0,0,1,9,2.86,18.14,18.14,0,0,1,9.34,16.28q0,6.83-4,10.95t-12.08,5.49q9.3,1.36,14,6T322.53,303a20.3,20.3,0,0,1-2.73,10.38,18.89,18.89,0,0,1-7.51,7.27,32.54,32.54,0,0,1-10,3.31q-5.71,1-19,1H270.8Zm16.44-46.17h3.68q7.45,0,10.55-2.1c2.07-1.4,3.1-3.74,3.1-7s-1-5.51-3-6.87-5.43-2.05-10.37-2.05h-4Zm0,33.35h6.46q6.19,0,9.4-2.7c2.14-1.81,3.2-4.44,3.2-7.91,0-3.25-1.05-5.74-3.17-7.45s-5.19-2.58-9.22-2.58h-6.67Z"/><path d="M449.55,248.1v47.84q0,15.66-8.24,23.37T416.47,327q-16.86,0-25.11-7.72t-8.24-23.37V248.1h16.33v45.27q0,9.51,4.2,14.31t12.55,4.81q8.42,0,12.71-4.83t4.31-14.29V248.1Z"/><path d="M515.29,325V248.1h16.43V325Z"/><path d="M597.67,325V248.1H614.1V311h26.26v14Z"/><path d="M699.11,325V248.1h20.95q12.41,0,19.54,1.73a34.11,34.11,0,0,1,12.55,5.78,33.28,33.28,0,0,1,10.59,13.1,43.12,43.12,0,0,1,3.59,18,42.6,42.6,0,0,1-3.67,18.15,33.12,33.12,0,0,1-10.77,13,34.51,34.51,0,0,1-11.68,5.43Q733.77,325,721.38,325H699.11Zm16.44-13.87h9.14q12.91,0,18.82-5.88t5.91-18.64q0-12.72-5.91-18.62t-18.82-5.91h-9.14Z"/><path d="M828.49,325V248.1h45.27V262H844.93v15.81h28.83v14H844.93V311h28.83v14Z"/><path d="M993.91,325H975l-20.22-35.93V325H938.29V248.1h23.53q14,0,21,5.44t7,16.36A20.17,20.17,0,0,1,985,283.44,18.66,18.66,0,0,1,972.69,290Zm-39.18-44.12h2.47q10,0,13.18-2.18t3.2-7.59c0-3.78-1.15-6.46-3.44-8.06s-6.61-2.39-12.94-2.39h-2.47Z"/><rect x="0.08" y="246.72" width="259.93" height="21.51"/><rect x="0.08" y="274.51" width="259.93" height="21.51"/><rect x="0.08" y="302.3" width="259.93" height="21.51"/></g></g></svg>